<?xml version="1.0" encoding="UTF-8" standalone="no"?>
<!DOCTYPE svg PUBLIC "-//W3C//DTD SVG 1.1//EN"
 "http://www.w3.org/Graphics/SVG/1.1/DTD/svg11.dtd">
<!-- Generated by graphviz version 2.38.0 (20140413.2041)
 -->
<!-- Title: dependencies Pages: 1 -->
<svg width="791pt" height="791pt"
 viewBox="0.00 0.00 791.00 791.41" xmlns="http://www.w3.org/2000/svg" xmlns:xlink="http://www.w3.org/1999/xlink">
<g id="graph0" class="graph" transform="scale(1 1) rotate(0) translate(4 787.411)">
<title>dependencies</title>
<!-- Client -->
<g id="node1" class="node"><title>Client</title>
<ellipse fill="#fdae61" stroke="black" cx="258.125" cy="-428" rx="84.7059" ry="42.3529"/>
<text text-anchor="middle" x="258.125" y="-434.8" font-family="Times,serif" font-size="24.00">Client/</text>
<text text-anchor="middle" x="258.125" y="-408.8" font-family="Times,serif" font-size="24.00">3&#45;6K LOC</text>
</g>
<!-- RPC -->
<g id="node6" class="node"><title>RPC</title>
<ellipse fill="#fdae61" stroke="black" cx="259.125" cy="-296" rx="84.7059" ry="42.3529"/>
<text text-anchor="middle" x="259.125" y="-302.8" font-family="Times,serif" font-size="24.00">RPC/</text>
<text text-anchor="middle" x="259.125" y="-276.8" font-family="Times,serif" font-size="24.00">2&#45;7K LOC</text>
</g>
<!-- Client&#45;&gt;RPC -->
<g id="edge1" class="edge"><title>Client&#45;&gt;RPC</title>
<path fill="none" stroke="black" d="M258.444,-385.51C258.534,-373.783 258.634,-360.877 258.728,-348.632"/>
<polygon fill="black" stroke="black" points="262.228,-348.569 258.805,-338.542 255.229,-348.515 262.228,-348.569"/>
</g>
<!-- Tree -->
<g id="node9" class="node"><title>Tree</title>
<ellipse fill="#2b83ba" stroke="black" cx="469.125" cy="-296" rx="90.1597" ry="54"/>
<text text-anchor="middle" x="469.125" y="-304.2" font-family="Mono Bold" font-size="26.00" fill="white">Tree/</text>
<text text-anchor="middle" x="469.125" y="-275.2" font-family="Mono Bold" font-size="26.00" fill="white">1&#45;2K LOC</text>
</g>
<!-- Client&#45;&gt;Tree -->
<g id="edge2" class="edge"><title>Client&#45;&gt;Tree</title>
<path fill="none" stroke="black" stroke-dasharray="5,2" d="M310.825,-394.531C337.263,-378.242 369.662,-358.281 398.247,-340.669"/>
<polygon fill="black" stroke="black" points="400.307,-343.511 406.985,-335.285 396.635,-337.551 400.307,-343.511"/>
</g>
<!-- Core -->
<g id="node2" class="node"><title>Core</title>
<ellipse fill="#fdae61" stroke="black" cx="586.125" cy="-42" rx="84.7059" ry="42.3529"/>
<text text-anchor="middle" x="586.125" y="-48.8" font-family="Times,serif" font-size="24.00">Core/</text>
<text text-anchor="middle" x="586.125" y="-22.8" font-family="Times,serif" font-size="24.00">3&#45;7K LOC</text>
</g>
<!-- Event -->
<g id="node3" class="node"><title>Event</title>
<ellipse fill="#fdae61" stroke="black" cx="259.125" cy="-163" rx="84.7059" ry="42.3529"/>
<text text-anchor="middle" x="259.125" y="-169.8" font-family="Times,serif" font-size="24.00">Event/</text>
<text text-anchor="middle" x="259.125" y="-143.8" font-family="Times,serif" font-size="24.00">1&#45;2K LOC</text>
</g>
<!-- Event&#45;&gt;Core -->
<g id="edge3" class="edge"><title>Event&#45;&gt;Core</title>
<path fill="none" stroke="black" d="M325.954,-136.626C340.187,-131.28 355.14,-125.706 369.125,-120.574 415.12,-103.693 466.767,-85.2111 508.133,-70.5229"/>
<polygon fill="black" stroke="black" points="509.351,-73.8046 517.605,-67.1621 507.01,-67.2076 509.351,-73.8046"/>
</g>
<!-- Examples -->
<g id="node4" class="node"><title>Examples</title>
<ellipse fill="#fdae61" stroke="black" cx="282.125" cy="-645" rx="84.7059" ry="42.3529"/>
<text text-anchor="middle" x="282.125" y="-651.8" font-family="Times,serif" font-size="24.00">Examples/</text>
<text text-anchor="middle" x="282.125" y="-625.8" font-family="Times,serif" font-size="24.00">1&#45;2K LOC</text>
</g>
<!-- ClientLib -->
<g id="node10" class="node"><title>ClientLib</title>
<polygon fill="#abdda4" stroke="black" points="352.625,-555 211.625,-555 211.625,-519 352.625,-519 352.625,-555"/>
<text text-anchor="middle" x="282.125" y="-530.8" font-family="Times,serif" font-size="24.00">liblogcabin.a</text>
</g>
<!-- Examples&#45;&gt;ClientLib -->
<g id="edge4" class="edge"><title>Examples&#45;&gt;ClientLib</title>
<path fill="none" stroke="black" d="M282.125,-602.41C282.125,-589.927 282.125,-576.558 282.125,-565.253"/>
<polygon fill="black" stroke="black" points="285.625,-565.143 282.125,-555.143 278.625,-565.143 285.625,-565.143"/>
</g>
<!-- Protocol -->
<g id="node5" class="node"><title>Protocol</title>
<ellipse fill="#fdae61" stroke="black" cx="463.125" cy="-163" rx="84.7059" ry="42.3529"/>
<text text-anchor="middle" x="463.125" y="-169.8" font-family="Times,serif" font-size="24.00">Protocol/</text>
<text text-anchor="middle" x="463.125" y="-143.8" font-family="Times,serif" font-size="24.00">0&#45;1K LOC</text>
</g>
<!-- RPC&#45;&gt;Event -->
<g id="edge5" class="edge"><title>RPC&#45;&gt;Event</title>
<path fill="none" stroke="black" d="M259.125,-253.551C259.125,-241.604 259.125,-228.418 259.125,-215.922"/>
<polygon fill="black" stroke="black" points="262.625,-215.629 259.125,-205.629 255.625,-215.629 262.625,-215.629"/>
</g>
<!-- RPC&#45;&gt;Protocol -->
<g id="edge6" class="edge"><title>RPC&#45;&gt;Protocol</title>
<path fill="none" stroke="black" d="M310.339,-262.112C338.591,-243.97 373.822,-221.347 403.33,-202.398"/>
<polygon fill="black" stroke="black" points="405.366,-205.25 411.889,-196.901 401.584,-199.36 405.366,-205.25"/>
</g>
<!-- Server -->
<g id="node7" class="node"><title>Server</title>
<ellipse fill="#fdae61" stroke="black" cx="471.125" cy="-428" rx="93.1765" ry="42.3529"/>
<text text-anchor="middle" x="471.125" y="-434.8" font-family="Times,serif" font-size="24.00">Server/</text>
<text text-anchor="middle" x="471.125" y="-408.8" font-family="Times,serif" font-size="24.00">5&#45;13K LOC</text>
</g>
<!-- Server&#45;&gt;RPC -->
<g id="edge7" class="edge"><title>Server&#45;&gt;RPC</title>
<path fill="none" stroke="black" d="M416.53,-393.522C387.274,-375.582 351.126,-353.416 320.852,-334.851"/>
<polygon fill="black" stroke="black" points="322.425,-331.71 312.07,-329.467 318.766,-337.678 322.425,-331.71"/>
</g>
<!-- Storage -->
<g id="node8" class="node"><title>Storage</title>
<ellipse fill="#fdae61" stroke="black" cx="678.125" cy="-296" rx="84.7059" ry="42.3529"/>
<text text-anchor="middle" x="678.125" y="-302.8" font-family="Times,serif" font-size="24.00">Storage/</text>
<text text-anchor="middle" x="678.125" y="-276.8" font-family="Times,serif" font-size="24.00">3&#45;7K LOC</text>
</g>
<!-- Server&#45;&gt;Storage -->
<g id="edge8" class="edge"><title>Server&#45;&gt;Storage</title>
<path fill="none" stroke="black" d="M524.971,-393.183C553.319,-375.381 588.179,-353.488 617.476,-335.089"/>
<polygon fill="black" stroke="black" points="619.371,-338.032 625.978,-329.749 615.648,-332.104 619.371,-338.032"/>
</g>
<!-- Server&#45;&gt;Tree -->
<g id="edge9" class="edge"><title>Server&#45;&gt;Tree</title>
<path fill="none" stroke="black" d="M470.487,-385.51C470.365,-377.586 470.235,-369.123 470.105,-360.689"/>
<polygon fill="black" stroke="black" points="473.601,-360.4 469.947,-350.455 466.602,-360.508 473.601,-360.4"/>
</g>
<!-- Storage&#45;&gt;Core -->
<g id="edge10" class="edge"><title>Storage&#45;&gt;Core</title>
<path fill="none" stroke="black" d="M663.139,-253.951C647.134,-210.11 621.752,-140.586 604.54,-93.4411"/>
<polygon fill="black" stroke="black" points="607.822,-92.2247 601.105,-84.0314 601.246,-94.6253 607.822,-92.2247"/>
</g>
<!-- Tree&#45;&gt;Core -->
<g id="edge11" class="edge"><title>Tree&#45;&gt;Core</title>
<path fill="none" stroke="black" d="M521.708,-251.926C535.175,-238.384 548.324,-222.473 557.125,-205.426 574.87,-171.057 581.964,-127.755 584.705,-94.5055"/>
<polygon fill="black" stroke="black" points="588.196,-94.756 585.423,-84.5305 581.214,-94.2533 588.196,-94.756"/>
</g>
<!-- Tree&#45;&gt;Protocol -->
<g id="edge12" class="edge"><title>Tree&#45;&gt;Protocol</title>
<path fill="none" stroke="black" d="M466.685,-241.717C466.292,-233.156 465.887,-224.306 465.497,-215.781"/>
<polygon fill="black" stroke="black" points="468.984,-215.414 465.03,-205.584 461.991,-215.734 468.984,-215.414"/>
</g>
<!-- ClientLib&#45;&gt;Client -->
<g id="edge13" class="edge"><title>ClientLib&#45;&gt;Client</title>
<path fill="none" stroke="black" d="M278.269,-518.809C275.902,-508.255 272.734,-494.133 269.613,-480.218"/>
<polygon fill="black" stroke="black" points="272.964,-479.167 267.361,-470.175 266.134,-480.699 272.964,-479.167"/>
</g>
<!-- Main -->
<g id="node11" class="node"><title>Main</title>
<polygon fill="#abdda4" stroke="black" points="535.625,-567 406.625,-567 406.625,-507 535.625,-507 535.625,-567"/>
<text text-anchor="middle" x="471.125" y="-543.8" font-family="Times,serif" font-size="24.00">logcabind</text>
<text text-anchor="middle" x="471.125" y="-517.8" font-family="Times,serif" font-size="24.00">(LogCabin)</text>
</g>
<!-- Main&#45;&gt;Server -->
<g id="edge14" class="edge"><title>Main&#45;&gt;Server</title>
<path fill="none" stroke="black" d="M471.125,-506.762C471.125,-498.67 471.125,-489.638 471.125,-480.674"/>
<polygon fill="black" stroke="black" points="474.625,-480.637 471.125,-470.637 467.625,-480.637 474.625,-480.637"/>
</g>
<!-- Reconfigure -->
<g id="node12" class="node"><title>Reconfigure</title>
<polygon fill="#abdda4" stroke="black" points="290.125,-783 72.125,-783 72.125,-723 290.125,-723 290.125,-783"/>
<text text-anchor="middle" x="181.125" y="-759.8" font-family="Times,serif" font-size="24.00">logcabin&#45;reconfigure</text>
<text text-anchor="middle" x="181.125" y="-733.8" font-family="Times,serif" font-size="24.00">(Reconfigure)</text>
</g>
<!-- Reconfigure&#45;&gt;Examples -->
<g id="edge15" class="edge"><title>Reconfigure&#45;&gt;Examples</title>
<path fill="none" stroke="black" d="M208.991,-722.754C218.384,-712.896 229.095,-701.655 239.368,-690.874"/>
<polygon fill="black" stroke="black" points="242.024,-693.16 246.388,-683.506 236.956,-688.331 242.024,-693.16"/>
</g>
<!-- ServerControl -->
<g id="node13" class="node"><title>ServerControl</title>
<polygon fill="#abdda4" stroke="black" points="177.125,-567 7.125,-567 7.125,-507 177.125,-507 177.125,-567"/>
<text text-anchor="middle" x="92.125" y="-543.8" font-family="Times,serif" font-size="24.00">logcabinctl</text>
<text text-anchor="middle" x="92.125" y="-517.8" font-family="Times,serif" font-size="24.00">(ServerControl)</text>
</g>
<!-- ServerControl&#45;&gt;Client -->
<g id="edge16" class="edge"><title>ServerControl&#45;&gt;Client</title>
<path fill="none" stroke="black" d="M137.485,-506.762C156.3,-494.634 178.389,-480.396 198.488,-467.441"/>
<polygon fill="black" stroke="black" points="200.456,-470.336 206.965,-461.977 196.664,-464.453 200.456,-470.336"/>
</g>
<!-- StorageTool -->
<g id="node14" class="node"><title>StorageTool</title>
<polygon fill="#abdda4" stroke="black" points="775.125,-458 599.125,-458 599.125,-398 775.125,-398 775.125,-458"/>
<text text-anchor="middle" x="687.125" y="-434.8" font-family="Times,serif" font-size="24.00">logcabin&#45;storage</text>
<text text-anchor="middle" x="687.125" y="-408.8" font-family="Times,serif" font-size="24.00">(Storage/Tool)</text>
</g>
<!-- StorageTool&#45;&gt;Storage -->
<g id="edge17" class="edge"><title>StorageTool&#45;&gt;Storage</title>
<path fill="none" stroke="black" d="M685.105,-397.825C684.101,-383.319 682.857,-365.35 681.699,-348.618"/>
<polygon fill="black" stroke="black" points="685.174,-348.137 680.991,-338.402 678.19,-348.62 685.174,-348.137"/>
</g>
<!-- TreeOps -->
<g id="node15" class="node"><title>TreeOps</title>
<polygon fill="#abdda4" stroke="black" points="441.125,-783 325.125,-783 325.125,-723 441.125,-723 441.125,-783"/>
<text text-anchor="middle" x="383.125" y="-759.8" font-family="Times,serif" font-size="24.00">logcabin</text>
<text text-anchor="middle" x="383.125" y="-733.8" font-family="Times,serif" font-size="24.00">(TreeOps)</text>
</g>
<!-- TreeOps&#45;&gt;Examples -->
<g id="edge18" class="edge"><title>TreeOps&#45;&gt;Examples</title>
<path fill="none" stroke="black" d="M355.259,-722.754C345.866,-712.896 335.155,-701.655 324.882,-690.874"/>
<polygon fill="black" stroke="black" points="327.294,-688.331 317.862,-683.506 322.226,-693.16 327.294,-688.331"/>
</g>
</g>
</svg>
