<?xml version="1.0" encoding="UTF-8" standalone="no"?>
<!DOCTYPE svg PUBLIC "-//W3C//DTD SVG 1.1//EN"
 "http://www.w3.org/Graphics/SVG/1.1/DTD/svg11.dtd">
<!-- Generated by graphviz version 2.38.0 (20140413.2041)
 -->
<!-- Title: dependencies Pages: 1 -->
<svg width="791pt" height="791pt"
 viewBox="0.00 0.00 791.00 791.41" xmlns="http://www.w3.org/2000/svg" xmlns:xlink="http://www.w3.org/1999/xlink">
<g id="graph0" class="graph" transform="scale(1 1) rotate(0) translate(4 787.411)">
<title>dependencies</title>
<!-- Client -->
<g id="node1" class="node"><title>Client</title>
<ellipse fill="#fdae61" stroke="black" cx="257.687" cy="-428" rx="84.7059" ry="42.3529"/>
<text text-anchor="middle" x="257.687" y="-434.8" font-family="Times,serif" font-size="24.00">Client/</text>
<text text-anchor="middle" x="257.687" y="-408.8" font-family="Times,serif" font-size="24.00">3&#45;6K LOC</text>
</g>
<!-- RPC -->
<g id="node6" class="node"><title>RPC</title>
<ellipse fill="#fdae61" stroke="black" cx="261.687" cy="-296" rx="84.7059" ry="42.3529"/>
<text text-anchor="middle" x="261.687" y="-302.8" font-family="Times,serif" font-size="24.00">RPC/</text>
<text text-anchor="middle" x="261.687" y="-276.8" font-family="Times,serif" font-size="24.00">2&#45;7K LOC</text>
</g>
<!-- Client&#45;&gt;RPC -->
<g id="edge1" class="edge"><title>Client&#45;&gt;RPC</title>
<path fill="none" stroke="black" d="M258.964,-385.51C259.325,-373.783 259.722,-360.877 260.099,-348.632"/>
<polygon fill="black" stroke="black" points="263.6,-348.645 260.409,-338.542 256.603,-348.43 263.6,-348.645"/>
</g>
<!-- Tree -->
<g id="node9" class="node"><title>Tree</title>
<ellipse fill="#fdae61" stroke="black" cx="466.687" cy="-296" rx="84.7059" ry="42.3529"/>
<text text-anchor="middle" x="466.687" y="-302.8" font-family="Times,serif" font-size="24.00">Tree/</text>
<text text-anchor="middle" x="466.687" y="-276.8" font-family="Times,serif" font-size="24.00">1&#45;2K LOC</text>
</g>
<!-- Client&#45;&gt;Tree -->
<g id="edge2" class="edge"><title>Client&#45;&gt;Tree</title>
<path fill="none" stroke="black" stroke-dasharray="5,2" d="M309.888,-394.531C338.94,-376.46 375.257,-353.871 405.623,-334.983"/>
<polygon fill="black" stroke="black" points="407.785,-337.76 414.428,-329.506 404.088,-331.816 407.785,-337.76"/>
</g>
<!-- Core -->
<g id="node2" class="node"><title>Core</title>
<ellipse fill="#fdae61" stroke="black" cx="589.688" cy="-42" rx="84.7059" ry="42.3529"/>
<text text-anchor="middle" x="589.688" y="-48.8" font-family="Times,serif" font-size="24.00">Core/</text>
<text text-anchor="middle" x="589.688" y="-22.8" font-family="Times,serif" font-size="24.00">3&#45;7K LOC</text>
</g>
<!-- Event -->
<g id="node3" class="node"><title>Event</title>
<ellipse fill="#fdae61" stroke="black" cx="261.687" cy="-163" rx="84.7059" ry="42.3529"/>
<text text-anchor="middle" x="261.687" y="-169.8" font-family="Times,serif" font-size="24.00">Event/</text>
<text text-anchor="middle" x="261.687" y="-143.8" font-family="Times,serif" font-size="24.00">1&#45;2K LOC</text>
</g>
<!-- Event&#45;&gt;Core -->
<g id="edge3" class="edge"><title>Event&#45;&gt;Core</title>
<path fill="none" stroke="black" d="M328.841,-136.767C343.291,-131.385 358.487,-125.761 372.687,-120.574 418.707,-103.761 470.355,-85.2825 511.716,-70.5788"/>
<polygon fill="black" stroke="black" points="512.935,-73.86 521.186,-67.214 510.592,-67.2639 512.935,-73.86"/>
</g>
<!-- Examples -->
<g id="node4" class="node"><title>Examples</title>
<ellipse fill="#fdae61" stroke="black" cx="281.687" cy="-645" rx="84.7059" ry="42.3529"/>
<text text-anchor="middle" x="281.687" y="-651.8" font-family="Times,serif" font-size="24.00">Examples/</text>
<text text-anchor="middle" x="281.687" y="-625.8" font-family="Times,serif" font-size="24.00">1&#45;2K LOC</text>
</g>
<!-- ClientLib -->
<g id="node10" class="node"><title>ClientLib</title>
<polygon fill="#abdda4" stroke="black" points="352.187,-555 211.187,-555 211.187,-519 352.187,-519 352.187,-555"/>
<text text-anchor="middle" x="281.687" y="-530.8" font-family="Times,serif" font-size="24.00">liblogcabin.a</text>
</g>
<!-- Examples&#45;&gt;ClientLib -->
<g id="edge4" class="edge"><title>Examples&#45;&gt;ClientLib</title>
<path fill="none" stroke="black" d="M281.687,-602.41C281.687,-589.927 281.687,-576.558 281.687,-565.253"/>
<polygon fill="black" stroke="black" points="285.188,-565.143 281.687,-555.143 278.188,-565.143 285.188,-565.143"/>
</g>
<!-- Protocol -->
<g id="node5" class="node"><title>Protocol</title>
<ellipse fill="#fdae61" stroke="black" cx="466.687" cy="-163" rx="84.7059" ry="42.3529"/>
<text text-anchor="middle" x="466.687" y="-169.8" font-family="Times,serif" font-size="24.00">Protocol/</text>
<text text-anchor="middle" x="466.687" y="-143.8" font-family="Times,serif" font-size="24.00">0&#45;1K LOC</text>
</g>
<!-- RPC&#45;&gt;Event -->
<g id="edge5" class="edge"><title>RPC&#45;&gt;Event</title>
<path fill="none" stroke="black" d="M261.687,-253.551C261.687,-241.604 261.687,-228.418 261.687,-215.922"/>
<polygon fill="black" stroke="black" points="265.188,-215.629 261.687,-205.629 258.188,-215.629 265.188,-215.629"/>
</g>
<!-- RPC&#45;&gt;Protocol -->
<g id="edge6" class="edge"><title>RPC&#45;&gt;Protocol</title>
<path fill="none" stroke="black" d="M313.153,-262.112C341.543,-243.97 376.946,-221.347 406.6,-202.398"/>
<polygon fill="black" stroke="black" points="408.659,-205.235 415.201,-196.901 404.89,-199.337 408.659,-205.235"/>
</g>
<!-- Server -->
<g id="node7" class="node"><title>Server</title>
<ellipse fill="#fdae61" stroke="black" cx="470.687" cy="-428" rx="93.1765" ry="42.3529"/>
<text text-anchor="middle" x="470.687" y="-434.8" font-family="Times,serif" font-size="24.00">Server/</text>
<text text-anchor="middle" x="470.687" y="-408.8" font-family="Times,serif" font-size="24.00">5&#45;13K LOC</text>
</g>
<!-- Server&#45;&gt;RPC -->
<g id="edge7" class="edge"><title>Server&#45;&gt;RPC</title>
<path fill="none" stroke="black" d="M416.593,-393.353C387.861,-375.481 352.445,-353.452 322.732,-334.97"/>
<polygon fill="black" stroke="black" points="324.451,-331.918 314.111,-329.608 320.754,-337.862 324.451,-331.918"/>
</g>
<!-- Storage -->
<g id="node8" class="node"><title>Storage</title>
<ellipse fill="#2b83ba" stroke="black" cx="676.688" cy="-296" rx="90.1597" ry="54"/>
<text text-anchor="middle" x="676.688" y="-304.2" font-family="Mono Bold" font-size="26.00" fill="white">Storage/</text>
<text text-anchor="middle" x="676.688" y="-275.2" font-family="Mono Bold" font-size="26.00" fill="white">3&#45;7K LOC</text>
</g>
<!-- Server&#45;&gt;Storage -->
<g id="edge8" class="edge"><title>Server&#45;&gt;Storage</title>
<path fill="none" stroke="black" d="M524.274,-393.183C549.445,-377.298 579.777,-358.157 606.732,-341.147"/>
<polygon fill="black" stroke="black" points="608.765,-344.003 615.354,-335.706 605.029,-338.083 608.765,-344.003"/>
</g>
<!-- Server&#45;&gt;Tree -->
<g id="edge9" class="edge"><title>Server&#45;&gt;Tree</title>
<path fill="none" stroke="black" d="M469.411,-385.51C469.05,-373.783 468.653,-360.877 468.276,-348.632"/>
<polygon fill="black" stroke="black" points="471.772,-348.43 467.966,-338.542 464.775,-348.645 471.772,-348.43"/>
</g>
<!-- Storage&#45;&gt;Core -->
<g id="edge10" class="edge"><title>Storage&#45;&gt;Core</title>
<path fill="none" stroke="black" d="M658.661,-242.785C643.53,-198.958 622.051,-136.741 607.096,-93.4247"/>
<polygon fill="black" stroke="black" points="610.392,-92.2474 603.821,-83.9371 603.776,-94.5318 610.392,-92.2474"/>
</g>
<!-- Tree&#45;&gt;Core -->
<g id="edge11" class="edge"><title>Tree&#45;&gt;Core</title>
<path fill="none" stroke="black" d="M514.036,-260.459C531.317,-245.45 549.377,-226.475 560.688,-205.426 578.997,-171.355 586.059,-128.036 588.646,-94.7046"/>
<polygon fill="black" stroke="black" points="592.14,-94.913 589.312,-84.7024 585.155,-94.4475 592.14,-94.913"/>
</g>
<!-- Tree&#45;&gt;Protocol -->
<g id="edge12" class="edge"><title>Tree&#45;&gt;Protocol</title>
<path fill="none" stroke="black" d="M466.687,-253.551C466.687,-241.604 466.687,-228.418 466.687,-215.922"/>
<polygon fill="black" stroke="black" points="470.188,-215.629 466.687,-205.629 463.188,-215.629 470.188,-215.629"/>
</g>
<!-- ClientLib&#45;&gt;Client -->
<g id="edge13" class="edge"><title>ClientLib&#45;&gt;Client</title>
<path fill="none" stroke="black" d="M277.831,-518.809C275.464,-508.255 272.297,-494.133 269.176,-480.218"/>
<polygon fill="black" stroke="black" points="272.527,-479.167 266.923,-470.175 265.697,-480.699 272.527,-479.167"/>
</g>
<!-- Main -->
<g id="node11" class="node"><title>Main</title>
<polygon fill="#abdda4" stroke="black" points="535.188,-567 406.187,-567 406.187,-507 535.188,-507 535.188,-567"/>
<text text-anchor="middle" x="470.687" y="-543.8" font-family="Times,serif" font-size="24.00">logcabind</text>
<text text-anchor="middle" x="470.687" y="-517.8" font-family="Times,serif" font-size="24.00">(LogCabin)</text>
</g>
<!-- Main&#45;&gt;Server -->
<g id="edge14" class="edge"><title>Main&#45;&gt;Server</title>
<path fill="none" stroke="black" d="M470.687,-506.762C470.687,-498.67 470.687,-489.638 470.687,-480.674"/>
<polygon fill="black" stroke="black" points="474.188,-480.637 470.687,-470.637 467.188,-480.637 474.188,-480.637"/>
</g>
<!-- Reconfigure -->
<g id="node12" class="node"><title>Reconfigure</title>
<polygon fill="#abdda4" stroke="black" points="290.687,-783 72.6875,-783 72.6875,-723 290.687,-723 290.687,-783"/>
<text text-anchor="middle" x="181.687" y="-759.8" font-family="Times,serif" font-size="24.00">logcabin&#45;reconfigure</text>
<text text-anchor="middle" x="181.687" y="-733.8" font-family="Times,serif" font-size="24.00">(Reconfigure)</text>
</g>
<!-- Reconfigure&#45;&gt;Examples -->
<g id="edge15" class="edge"><title>Reconfigure&#45;&gt;Examples</title>
<path fill="none" stroke="black" d="M209.278,-722.754C218.484,-712.996 228.969,-701.882 239.046,-691.2"/>
<polygon fill="black" stroke="black" points="241.62,-693.572 245.936,-683.897 236.528,-688.769 241.62,-693.572"/>
</g>
<!-- ServerControl -->
<g id="node13" class="node"><title>ServerControl</title>
<polygon fill="#abdda4" stroke="black" points="177.687,-567 7.6875,-567 7.6875,-507 177.687,-507 177.687,-567"/>
<text text-anchor="middle" x="92.6875" y="-543.8" font-family="Times,serif" font-size="24.00">logcabinctl</text>
<text text-anchor="middle" x="92.6875" y="-517.8" font-family="Times,serif" font-size="24.00">(ServerControl)</text>
</g>
<!-- ServerControl&#45;&gt;Client -->
<g id="edge16" class="edge"><title>ServerControl&#45;&gt;Client</title>
<path fill="none" stroke="black" d="M137.774,-506.762C156.476,-494.634 178.432,-480.396 198.41,-467.441"/>
<polygon fill="black" stroke="black" points="200.35,-470.354 206.836,-461.977 196.541,-464.481 200.35,-470.354"/>
</g>
<!-- StorageTool -->
<g id="node14" class="node"><title>StorageTool</title>
<polygon fill="#abdda4" stroke="black" points="775.688,-458 599.688,-458 599.688,-398 775.688,-398 775.688,-458"/>
<text text-anchor="middle" x="687.688" y="-434.8" font-family="Times,serif" font-size="24.00">logcabin&#45;storage</text>
<text text-anchor="middle" x="687.688" y="-408.8" font-family="Times,serif" font-size="24.00">(Storage/Tool)</text>
</g>
<!-- StorageTool&#45;&gt;Storage -->
<g id="edge17" class="edge"><title>StorageTool&#45;&gt;Storage</title>
<path fill="none" stroke="black" d="M685.219,-397.825C684.27,-386.61 683.146,-373.326 682.03,-360.144"/>
<polygon fill="black" stroke="black" points="685.513,-359.788 681.182,-350.119 678.538,-360.379 685.513,-359.788"/>
</g>
<!-- TreeOps -->
<g id="node15" class="node"><title>TreeOps</title>
<polygon fill="#abdda4" stroke="black" points="440.687,-783 324.687,-783 324.687,-723 440.687,-723 440.687,-783"/>
<text text-anchor="middle" x="382.687" y="-759.8" font-family="Times,serif" font-size="24.00">logcabin</text>
<text text-anchor="middle" x="382.687" y="-733.8" font-family="Times,serif" font-size="24.00">(TreeOps)</text>
</g>
<!-- TreeOps&#45;&gt;Examples -->
<g id="edge18" class="edge"><title>TreeOps&#45;&gt;Examples</title>
<path fill="none" stroke="black" d="M354.821,-722.754C345.428,-712.896 334.717,-701.655 324.444,-690.874"/>
<polygon fill="black" stroke="black" points="326.856,-688.331 317.424,-683.506 321.788,-693.16 326.856,-688.331"/>
</g>
</g>
</svg>
