<?xml version="1.0" encoding="UTF-8" standalone="no"?>
<!DOCTYPE svg PUBLIC "-//W3C//DTD SVG 1.1//EN"
 "http://www.w3.org/Graphics/SVG/1.1/DTD/svg11.dtd">
<!-- Generated by graphviz version 2.38.0 (20140413.2041)
 -->
<!-- Title: dependencies Pages: 1 -->
<svg width="791pt" height="791pt"
 viewBox="0.00 0.00 791.00 791.41" xmlns="http://www.w3.org/2000/svg" xmlns:xlink="http://www.w3.org/1999/xlink">
<g id="graph0" class="graph" transform="scale(1 1) rotate(0) translate(4 787.411)">
<title>dependencies</title>
<!-- Client -->
<g id="node1" class="node"><title>Client</title>
<ellipse fill="#fdae61" stroke="black" cx="257.25" cy="-405" rx="84.7059" ry="42.3529"/>
<text text-anchor="middle" x="257.25" y="-411.8" font-family="Times,serif" font-size="24.00">Client/</text>
<text text-anchor="middle" x="257.25" y="-385.8" font-family="Times,serif" font-size="24.00">3&#45;6K LOC</text>
</g>
<!-- RPC -->
<g id="node6" class="node"><title>RPC</title>
<ellipse fill="#fdae61" stroke="black" cx="262.25" cy="-284" rx="84.7059" ry="42.3529"/>
<text text-anchor="middle" x="262.25" y="-290.8" font-family="Times,serif" font-size="24.00">RPC/</text>
<text text-anchor="middle" x="262.25" y="-264.8" font-family="Times,serif" font-size="24.00">2&#45;7K LOC</text>
</g>
<!-- Client&#45;&gt;RPC -->
<g id="edge1" class="edge"><title>Client&#45;&gt;RPC</title>
<path fill="none" stroke="black" d="M258.999,-362.38C259.343,-354.184 259.708,-345.489 260.065,-337.001"/>
<polygon fill="black" stroke="black" points="263.571,-336.936 260.494,-326.798 256.577,-336.642 263.571,-336.936"/>
</g>
<!-- Tree -->
<g id="node9" class="node"><title>Tree</title>
<ellipse fill="#fdae61" stroke="black" cx="466.25" cy="-284" rx="84.7059" ry="42.3529"/>
<text text-anchor="middle" x="466.25" y="-290.8" font-family="Times,serif" font-size="24.00">Tree/</text>
<text text-anchor="middle" x="466.25" y="-264.8" font-family="Times,serif" font-size="24.00">1&#45;2K LOC</text>
</g>
<!-- Client&#45;&gt;Tree -->
<g id="edge2" class="edge"><title>Client&#45;&gt;Tree</title>
<path fill="none" stroke="black" stroke-dasharray="5,2" d="M312.436,-372.578C340.055,-356.853 373.638,-337.731 402.369,-321.372"/>
<polygon fill="black" stroke="black" points="404.159,-324.381 411.118,-316.391 400.696,-318.298 404.159,-324.381"/>
</g>
<!-- Core -->
<g id="node2" class="node"><title>Core</title>
<ellipse fill="#fdae61" stroke="black" cx="589.25" cy="-42" rx="84.7059" ry="42.3529"/>
<text text-anchor="middle" x="589.25" y="-48.8" font-family="Times,serif" font-size="24.00">Core/</text>
<text text-anchor="middle" x="589.25" y="-22.8" font-family="Times,serif" font-size="24.00">3&#45;7K LOC</text>
</g>
<!-- Event -->
<g id="node3" class="node"><title>Event</title>
<ellipse fill="#fdae61" stroke="black" cx="262.25" cy="-163" rx="84.7059" ry="42.3529"/>
<text text-anchor="middle" x="262.25" y="-169.8" font-family="Times,serif" font-size="24.00">Event/</text>
<text text-anchor="middle" x="262.25" y="-143.8" font-family="Times,serif" font-size="24.00">1&#45;2K LOC</text>
</g>
<!-- Event&#45;&gt;Core -->
<g id="edge3" class="edge"><title>Event&#45;&gt;Core</title>
<path fill="none" stroke="black" d="M329.079,-136.626C343.312,-131.28 358.265,-125.706 372.25,-120.574 418.245,-103.693 469.892,-85.2111 511.258,-70.5229"/>
<polygon fill="black" stroke="black" points="512.476,-73.8046 520.73,-67.1621 510.135,-67.2076 512.476,-73.8046"/>
</g>
<!-- Examples -->
<g id="node4" class="node"><title>Examples</title>
<ellipse fill="#2b83ba" stroke="black" cx="281.25" cy="-633" rx="99.61" ry="54"/>
<text text-anchor="middle" x="281.25" y="-641.2" font-family="Mono Bold" font-size="26.00" fill="white">Examples/</text>
<text text-anchor="middle" x="281.25" y="-612.2" font-family="Mono Bold" font-size="26.00" fill="white">1&#45;2K LOC</text>
</g>
<!-- ClientLib -->
<g id="node10" class="node"><title>ClientLib</title>
<polygon fill="#abdda4" stroke="black" points="351.75,-531 210.75,-531 210.75,-495 351.75,-495 351.75,-531"/>
<text text-anchor="middle" x="281.25" y="-506.8" font-family="Times,serif" font-size="24.00">liblogcabin.a</text>
</g>
<!-- Examples&#45;&gt;ClientLib -->
<g id="edge4" class="edge"><title>Examples&#45;&gt;ClientLib</title>
<path fill="none" stroke="black" d="M281.25,-578.868C281.25,-565.796 281.25,-552.335 281.25,-541.087"/>
<polygon fill="black" stroke="black" points="284.75,-541.067 281.25,-531.067 277.75,-541.067 284.75,-541.067"/>
</g>
<!-- Protocol -->
<g id="node5" class="node"><title>Protocol</title>
<ellipse fill="#fdae61" stroke="black" cx="466.25" cy="-163" rx="84.7059" ry="42.3529"/>
<text text-anchor="middle" x="466.25" y="-169.8" font-family="Times,serif" font-size="24.00">Protocol/</text>
<text text-anchor="middle" x="466.25" y="-143.8" font-family="Times,serif" font-size="24.00">0&#45;1K LOC</text>
</g>
<!-- RPC&#45;&gt;Event -->
<g id="edge5" class="edge"><title>RPC&#45;&gt;Event</title>
<path fill="none" stroke="black" d="M262.25,-241.38C262.25,-233.184 262.25,-224.489 262.25,-216.001"/>
<polygon fill="black" stroke="black" points="265.75,-215.798 262.25,-205.798 258.75,-215.798 265.75,-215.798"/>
</g>
<!-- RPC&#45;&gt;Protocol -->
<g id="edge6" class="edge"><title>RPC&#45;&gt;Protocol</title>
<path fill="none" stroke="black" d="M316.65,-251.267C343.276,-235.735 375.481,-216.949 403.179,-200.791"/>
<polygon fill="black" stroke="black" points="405.127,-203.707 412.001,-195.645 401.6,-197.661 405.127,-203.707"/>
</g>
<!-- Server -->
<g id="node7" class="node"><title>Server</title>
<ellipse fill="#fdae61" stroke="black" cx="471.25" cy="-405" rx="93.1765" ry="42.3529"/>
<text text-anchor="middle" x="471.25" y="-411.8" font-family="Times,serif" font-size="24.00">Server/</text>
<text text-anchor="middle" x="471.25" y="-385.8" font-family="Times,serif" font-size="24.00">5&#45;13K LOC</text>
</g>
<!-- Server&#45;&gt;RPC -->
<g id="edge7" class="edge"><title>Server&#45;&gt;RPC</title>
<path fill="none" stroke="black" d="M413.863,-371.325C386.712,-355.866 354.193,-337.35 326.247,-321.438"/>
<polygon fill="black" stroke="black" points="327.768,-318.277 317.346,-316.371 324.305,-324.36 327.768,-318.277"/>
</g>
<!-- Storage -->
<g id="node8" class="node"><title>Storage</title>
<ellipse fill="#fdae61" stroke="black" cx="671.25" cy="-284" rx="84.7059" ry="42.3529"/>
<text text-anchor="middle" x="671.25" y="-290.8" font-family="Times,serif" font-size="24.00">Storage/</text>
<text text-anchor="middle" x="671.25" y="-264.8" font-family="Times,serif" font-size="24.00">3&#45;7K LOC</text>
</g>
<!-- Server&#45;&gt;Storage -->
<g id="edge8" class="edge"><title>Server&#45;&gt;Storage</title>
<path fill="none" stroke="black" d="M526.961,-370.852C552.403,-355.714 582.638,-337.724 608.842,-322.133"/>
<polygon fill="black" stroke="black" points="610.757,-325.066 617.561,-316.945 607.178,-319.05 610.757,-325.066"/>
</g>
<!-- Server&#45;&gt;Tree -->
<g id="edge9" class="edge"><title>Server&#45;&gt;Tree</title>
<path fill="none" stroke="black" d="M469.501,-362.38C469.157,-354.184 468.792,-345.489 468.435,-337.001"/>
<polygon fill="black" stroke="black" points="471.923,-336.642 468.006,-326.798 464.929,-336.936 471.923,-336.642"/>
</g>
<!-- Storage&#45;&gt;Core -->
<g id="edge10" class="edge"><title>Storage&#45;&gt;Core</title>
<path fill="none" stroke="black" d="M657.247,-242.015C643.256,-201.066 621.714,-138.017 606.637,-93.8877"/>
<polygon fill="black" stroke="black" points="609.878,-92.5488 603.333,-84.2175 603.254,-94.812 609.878,-92.5488"/>
</g>
<!-- Tree&#45;&gt;Core -->
<g id="edge11" class="edge"><title>Tree&#45;&gt;Core</title>
<path fill="none" stroke="black" d="M518.5,-250.524C534.222,-238.258 550.003,-222.965 560.25,-205.426 579.828,-171.917 586.806,-128.382 589.037,-94.8194"/>
<polygon fill="black" stroke="black" points="592.536,-94.9212 589.586,-84.7456 585.547,-94.5405 592.536,-94.9212"/>
</g>
<!-- Tree&#45;&gt;Protocol -->
<g id="edge12" class="edge"><title>Tree&#45;&gt;Protocol</title>
<path fill="none" stroke="black" d="M466.25,-241.38C466.25,-233.184 466.25,-224.489 466.25,-216.001"/>
<polygon fill="black" stroke="black" points="469.75,-215.798 466.25,-205.798 462.75,-215.798 469.75,-215.798"/>
</g>
<!-- ClientLib&#45;&gt;Client -->
<g id="edge13" class="edge"><title>ClientLib&#45;&gt;Client</title>
<path fill="none" stroke="black" d="M277.394,-494.969C275.048,-484.609 271.916,-470.776 268.822,-457.112"/>
<polygon fill="black" stroke="black" points="272.21,-456.223 266.588,-447.243 265.383,-457.769 272.21,-456.223"/>
</g>
<!-- Main -->
<g id="node11" class="node"><title>Main</title>
<polygon fill="#abdda4" stroke="black" points="535.75,-543 406.75,-543 406.75,-483 535.75,-483 535.75,-543"/>
<text text-anchor="middle" x="471.25" y="-519.8" font-family="Times,serif" font-size="24.00">logcabind</text>
<text text-anchor="middle" x="471.25" y="-493.8" font-family="Times,serif" font-size="24.00">(LogCabin)</text>
</g>
<!-- Main&#45;&gt;Server -->
<g id="edge14" class="edge"><title>Main&#45;&gt;Server</title>
<path fill="none" stroke="black" d="M471.25,-482.754C471.25,-474.914 471.25,-466.2 471.25,-457.538"/>
<polygon fill="black" stroke="black" points="474.75,-457.448 471.25,-447.448 467.75,-457.449 474.75,-457.448"/>
</g>
<!-- Reconfigure -->
<g id="node12" class="node"><title>Reconfigure</title>
<polygon fill="#abdda4" stroke="black" points="290.25,-783 72.25,-783 72.25,-723 290.25,-723 290.25,-783"/>
<text text-anchor="middle" x="181.25" y="-759.8" font-family="Times,serif" font-size="24.00">logcabin&#45;reconfigure</text>
<text text-anchor="middle" x="181.25" y="-733.8" font-family="Times,serif" font-size="24.00">(Reconfigure)</text>
</g>
<!-- Reconfigure&#45;&gt;Examples -->
<g id="edge15" class="edge"><title>Reconfigure&#45;&gt;Examples</title>
<path fill="none" stroke="black" d="M205.969,-722.831C214.334,-712.961 223.98,-701.579 233.515,-690.327"/>
<polygon fill="black" stroke="black" points="236.287,-692.47 240.082,-682.578 230.947,-687.944 236.287,-692.47"/>
</g>
<!-- ServerControl -->
<g id="node13" class="node"><title>ServerControl</title>
<polygon fill="#abdda4" stroke="black" points="177.25,-543 7.25,-543 7.25,-483 177.25,-483 177.25,-543"/>
<text text-anchor="middle" x="92.25" y="-519.8" font-family="Times,serif" font-size="24.00">logcabinctl</text>
<text text-anchor="middle" x="92.25" y="-493.8" font-family="Times,serif" font-size="24.00">(ServerControl)</text>
</g>
<!-- ServerControl&#45;&gt;Client -->
<g id="edge16" class="edge"><title>ServerControl&#45;&gt;Client</title>
<path fill="none" stroke="black" d="M137.774,-482.754C156.22,-470.904 177.777,-457.056 197.462,-444.409"/>
<polygon fill="black" stroke="black" points="199.54,-447.234 206.062,-438.884 195.757,-441.345 199.54,-447.234"/>
</g>
<!-- StorageTool -->
<g id="node14" class="node"><title>StorageTool</title>
<polygon fill="#abdda4" stroke="black" points="775.25,-435 599.25,-435 599.25,-375 775.25,-375 775.25,-435"/>
<text text-anchor="middle" x="687.25" y="-411.8" font-family="Times,serif" font-size="24.00">logcabin&#45;storage</text>
<text text-anchor="middle" x="687.25" y="-385.8" font-family="Times,serif" font-size="24.00">(Storage/Tool)</text>
</g>
<!-- StorageTool&#45;&gt;Storage -->
<g id="edge17" class="edge"><title>StorageTool&#45;&gt;Storage</title>
<path fill="none" stroke="black" d="M683.336,-374.889C681.773,-363.265 679.926,-349.525 678.152,-336.332"/>
<polygon fill="black" stroke="black" points="681.617,-335.838 676.815,-326.393 674.679,-336.771 681.617,-335.838"/>
</g>
<!-- TreeOps -->
<g id="node15" class="node"><title>TreeOps</title>
<polygon fill="#abdda4" stroke="black" points="441.25,-783 325.25,-783 325.25,-723 441.25,-723 441.25,-783"/>
<text text-anchor="middle" x="383.25" y="-759.8" font-family="Times,serif" font-size="24.00">logcabin</text>
<text text-anchor="middle" x="383.25" y="-733.8" font-family="Times,serif" font-size="24.00">(TreeOps)</text>
</g>
<!-- TreeOps&#45;&gt;Examples -->
<g id="edge18" class="edge"><title>TreeOps&#45;&gt;Examples</title>
<path fill="none" stroke="black" d="M358.037,-722.831C349.409,-712.85 339.444,-701.323 329.611,-689.948"/>
<polygon fill="black" stroke="black" points="332.03,-687.394 322.843,-682.117 326.735,-691.972 332.03,-687.394"/>
</g>
</g>
</svg>
