<?xml version="1.0" encoding="UTF-8" standalone="no"?>
<!DOCTYPE svg PUBLIC "-//W3C//DTD SVG 1.1//EN"
 "http://www.w3.org/Graphics/SVG/1.1/DTD/svg11.dtd">
<!-- Generated by graphviz version 2.38.0 (20140413.2041)
 -->
<!-- Title: dependencies Pages: 1 -->
<svg width="1528pt" height="768pt"
 viewBox="0.00 0.00 1528.00 768.26" xmlns="http://www.w3.org/2000/svg" xmlns:xlink="http://www.w3.org/1999/xlink">
<g id="graph0" class="graph" transform="scale(1 1) rotate(0) translate(4 764.264)">
<title>dependencies</title>
<!-- Client -->
<g id="node1" class="node"><title>Client</title>
<ellipse fill="#fdae61" stroke="black" cx="500.111" cy="-405" rx="84.7059" ry="42.3529"/>
<text text-anchor="middle" x="500.111" y="-411.8" font-family="Times,serif" font-size="24.00">Client/</text>
<text text-anchor="middle" x="500.111" y="-385.8" font-family="Times,serif" font-size="24.00">3&#45;6K LOC</text>
</g>
<!-- RPC -->
<g id="node6" class="node"><title>RPC</title>
<ellipse fill="#fdae61" stroke="black" cx="509.111" cy="-284" rx="84.7059" ry="42.3529"/>
<text text-anchor="middle" x="509.111" y="-290.8" font-family="Times,serif" font-size="24.00">RPC/</text>
<text text-anchor="middle" x="509.111" y="-264.8" font-family="Times,serif" font-size="24.00">2&#45;7K LOC</text>
</g>
<!-- Client&#45;&gt;RPC -->
<g id="edge1" class="edge"><title>Client&#45;&gt;RPC</title>
<path fill="none" stroke="black" d="M503.259,-362.38C503.879,-354.184 504.536,-345.489 505.178,-337.001"/>
<polygon fill="black" stroke="black" points="508.686,-337.034 505.95,-326.798 501.706,-336.506 508.686,-337.034"/>
</g>
<!-- Tree -->
<g id="node9" class="node"><title>Tree</title>
<ellipse fill="#fdae61" stroke="black" cx="906.111" cy="-284" rx="84.7059" ry="42.3529"/>
<text text-anchor="middle" x="906.111" y="-290.8" font-family="Times,serif" font-size="24.00">Tree/</text>
<text text-anchor="middle" x="906.111" y="-264.8" font-family="Times,serif" font-size="24.00">1&#45;2K LOC</text>
</g>
<!-- Client&#45;&gt;Tree -->
<g id="edge2" class="edge"><title>Client&#45;&gt;Tree</title>
<path fill="none" stroke="black" stroke-dasharray="5,2" d="M572.696,-382.725C643.202,-362.06 750.107,-330.725 823.759,-309.138"/>
<polygon fill="black" stroke="black" points="824.86,-312.462 833.472,-306.291 822.891,-305.745 824.86,-312.462"/>
</g>
<!-- Core -->
<g id="node2" class="node"><title>Core</title>
<ellipse fill="#fdae61" stroke="black" cx="1144.11" cy="-42" rx="84.7059" ry="42.3529"/>
<text text-anchor="middle" x="1144.11" y="-48.8" font-family="Times,serif" font-size="24.00">Core/</text>
<text text-anchor="middle" x="1144.11" y="-22.8" font-family="Times,serif" font-size="24.00">3&#45;7K LOC</text>
</g>
<!-- Event -->
<g id="node3" class="node"><title>Event</title>
<ellipse fill="#fdae61" stroke="black" cx="509.111" cy="-163" rx="84.7059" ry="42.3529"/>
<text text-anchor="middle" x="509.111" y="-169.8" font-family="Times,serif" font-size="24.00">Event/</text>
<text text-anchor="middle" x="509.111" y="-143.8" font-family="Times,serif" font-size="24.00">1&#45;2K LOC</text>
</g>
<!-- Event&#45;&gt;Core -->
<g id="edge3" class="edge"><title>Event&#45;&gt;Core</title>
<path fill="none" stroke="black" d="M587.931,-147.229C706.614,-124.988 930.533,-83.0248 1054.99,-59.7005"/>
<polygon fill="black" stroke="black" points="1055.7,-63.1295 1064.88,-57.8473 1054.41,-56.2493 1055.7,-63.1295"/>
</g>
<!-- Examples -->
<g id="node4" class="node"><title>Examples</title>
<ellipse fill="#fdae61" stroke="black" cx="547.111" cy="-622" rx="84.7059" ry="42.3529"/>
<text text-anchor="middle" x="547.111" y="-628.8" font-family="Times,serif" font-size="24.00">Examples/</text>
<text text-anchor="middle" x="547.111" y="-602.8" font-family="Times,serif" font-size="24.00">1&#45;2K LOC</text>
</g>
<!-- ClientLib -->
<g id="node10" class="node"><title>ClientLib</title>
<polygon fill="#abdda4" stroke="black" points="617.611,-531 476.611,-531 476.611,-495 617.611,-495 617.611,-531"/>
<text text-anchor="middle" x="547.111" y="-506.8" font-family="Times,serif" font-size="24.00">liblogcabin.a</text>
</g>
<!-- Examples&#45;&gt;ClientLib -->
<g id="edge4" class="edge"><title>Examples&#45;&gt;ClientLib</title>
<path fill="none" stroke="black" d="M547.111,-579.325C547.111,-566.607 547.111,-552.951 547.111,-541.429"/>
<polygon fill="black" stroke="black" points="550.611,-541.138 547.111,-531.138 543.611,-541.138 550.611,-541.138"/>
</g>
<!-- Protocol -->
<g id="node5" class="node"><title>Protocol</title>
<ellipse fill="#fdae61" stroke="black" cx="906.111" cy="-163" rx="84.7059" ry="42.3529"/>
<text text-anchor="middle" x="906.111" y="-169.8" font-family="Times,serif" font-size="24.00">Protocol/</text>
<text text-anchor="middle" x="906.111" y="-143.8" font-family="Times,serif" font-size="24.00">0&#45;1K LOC</text>
</g>
<!-- RPC&#45;&gt;Event -->
<g id="edge5" class="edge"><title>RPC&#45;&gt;Event</title>
<path fill="none" stroke="black" d="M509.111,-241.38C509.111,-233.184 509.111,-224.489 509.111,-216.001"/>
<polygon fill="black" stroke="black" points="512.611,-215.798 509.111,-205.798 505.611,-215.798 512.611,-215.798"/>
</g>
<!-- RPC&#45;&gt;Protocol -->
<g id="edge6" class="edge"><title>RPC&#45;&gt;Protocol</title>
<path fill="none" stroke="black" d="M581.005,-261.45C649.509,-240.916 752.54,-210.033 824.188,-188.556"/>
<polygon fill="black" stroke="black" points="825.509,-191.814 834.083,-185.59 823.499,-185.109 825.509,-191.814"/>
</g>
<!-- Server -->
<g id="node7" class="node"><title>Server</title>
<ellipse fill="#fdae61" stroke="black" cx="914.111" cy="-405" rx="93.1765" ry="42.3529"/>
<text text-anchor="middle" x="914.111" y="-411.8" font-family="Times,serif" font-size="24.00">Server/</text>
<text text-anchor="middle" x="914.111" y="-385.8" font-family="Times,serif" font-size="24.00">5&#45;13K LOC</text>
</g>
<!-- Server&#45;&gt;RPC -->
<g id="edge7" class="edge"><title>Server&#45;&gt;RPC</title>
<path fill="none" stroke="black" d="M836.502,-381.196C766.305,-360.571 663.257,-330.292 591.59,-309.235"/>
<polygon fill="black" stroke="black" points="592.273,-305.787 581.692,-306.326 590.3,-312.504 592.273,-305.787"/>
</g>
<!-- Storage -->
<g id="node8" class="node"><title>Storage</title>
<ellipse fill="#fdae61" stroke="black" cx="1302.11" cy="-284" rx="84.7059" ry="42.3529"/>
<text text-anchor="middle" x="1302.11" y="-290.8" font-family="Times,serif" font-size="24.00">Storage/</text>
<text text-anchor="middle" x="1302.11" y="-264.8" font-family="Times,serif" font-size="24.00">3&#45;7K LOC</text>
</g>
<!-- Server&#45;&gt;Storage -->
<g id="edge8" class="edge"><title>Server&#45;&gt;Storage</title>
<path fill="none" stroke="black" d="M990.767,-380.489C1057.18,-360.121 1152.98,-330.739 1220.74,-309.958"/>
<polygon fill="black" stroke="black" points="1221.99,-313.234 1230.52,-306.956 1219.94,-306.542 1221.99,-313.234"/>
</g>
<!-- Server&#45;&gt;Tree -->
<g id="edge9" class="edge"><title>Server&#45;&gt;Tree</title>
<path fill="none" stroke="black" d="M911.313,-362.38C910.762,-354.184 910.178,-345.489 909.607,-337.001"/>
<polygon fill="black" stroke="black" points="913.084,-336.541 908.921,-326.798 906.1,-337.01 913.084,-336.541"/>
</g>
<!-- Storage&#45;&gt;Core -->
<g id="edge10" class="edge"><title>Storage&#45;&gt;Core</title>
<path fill="none" stroke="black" d="M1276.02,-243.369C1248.52,-201.593 1205.18,-135.767 1175.75,-91.0589"/>
<polygon fill="black" stroke="black" points="1178.66,-89.1179 1170.24,-82.69 1172.82,-92.9671 1178.66,-89.1179"/>
</g>
<!-- Tree&#45;&gt;Core -->
<g id="edge11" class="edge"><title>Tree&#45;&gt;Core</title>
<path fill="none" stroke="black" d="M951.327,-248.059C967.214,-235.172 984.887,-220.121 1000.11,-205.426 1038.39,-168.476 1078.25,-122.881 1106.3,-89.4137"/>
<polygon fill="black" stroke="black" points="1109.09,-91.5299 1112.81,-81.6092 1103.71,-87.0455 1109.09,-91.5299"/>
</g>
<!-- Tree&#45;&gt;Protocol -->
<g id="edge12" class="edge"><title>Tree&#45;&gt;Protocol</title>
<path fill="none" stroke="black" d="M906.111,-241.38C906.111,-233.184 906.111,-224.489 906.111,-216.001"/>
<polygon fill="black" stroke="black" points="909.611,-215.798 906.111,-205.798 902.611,-215.798 909.611,-215.798"/>
</g>
<!-- ClientLib&#45;&gt;Client -->
<g id="edge13" class="edge"><title>ClientLib&#45;&gt;Client</title>
<path fill="none" stroke="black" d="M539.56,-494.969C534.834,-484.312 528.48,-469.98 522.253,-455.936"/>
<polygon fill="black" stroke="black" points="525.45,-454.513 518.197,-446.79 519.051,-457.351 525.45,-454.513"/>
</g>
<!-- Main -->
<g id="node11" class="node"><title>Main</title>
<polygon fill="#abdda4" stroke="black" points="978.611,-543 849.611,-543 849.611,-483 978.611,-483 978.611,-543"/>
<text text-anchor="middle" x="914.111" y="-519.8" font-family="Times,serif" font-size="24.00">logcabind</text>
<text text-anchor="middle" x="914.111" y="-493.8" font-family="Times,serif" font-size="24.00">(LogCabin)</text>
</g>
<!-- Main&#45;&gt;Server -->
<g id="edge14" class="edge"><title>Main&#45;&gt;Server</title>
<path fill="none" stroke="black" d="M914.111,-482.754C914.111,-474.914 914.111,-466.2 914.111,-457.538"/>
<polygon fill="black" stroke="black" points="917.611,-457.448 914.111,-447.448 910.611,-457.449 917.611,-457.448"/>
</g>
<!-- Reconfigure -->
<g id="node12" class="node"><title>Reconfigure</title>
<polygon fill="#abdda4" stroke="black" points="461.111,-760 243.111,-760 243.111,-700 461.111,-700 461.111,-760"/>
<text text-anchor="middle" x="352.111" y="-736.8" font-family="Times,serif" font-size="24.00">logcabin&#45;reconfigure</text>
<text text-anchor="middle" x="352.111" y="-710.8" font-family="Times,serif" font-size="24.00">(Reconfigure)</text>
</g>
<!-- Reconfigure&#45;&gt;Examples -->
<g id="edge15" class="edge"><title>Reconfigure&#45;&gt;Examples</title>
<path fill="none" stroke="black" d="M405.654,-699.895C429.151,-687.122 456.957,-672.007 481.671,-658.573"/>
<polygon fill="black" stroke="black" points="483.508,-661.558 490.622,-653.707 480.165,-655.408 483.508,-661.558"/>
</g>
<!-- ServerControl -->
<g id="node13" class="node"><title>ServerControl</title>
<polygon fill="#abdda4" stroke="black" points="264.111,-543 94.1111,-543 94.1111,-483 264.111,-483 264.111,-543"/>
<text text-anchor="middle" x="179.111" y="-519.8" font-family="Times,serif" font-size="24.00">logcabinctl</text>
<text text-anchor="middle" x="179.111" y="-493.8" font-family="Times,serif" font-size="24.00">(ServerControl)</text>
</g>
<!-- ServerControl&#45;&gt;Client -->
<g id="edge16" class="edge"><title>ServerControl&#45;&gt;Client</title>
<path fill="none" stroke="black" d="M264.29,-483.872C312.684,-467.892 372.894,-448.009 420.361,-432.335"/>
<polygon fill="black" stroke="black" points="421.583,-435.617 429.982,-429.158 419.388,-428.97 421.583,-435.617"/>
</g>
<!-- StorageTool -->
<g id="node14" class="node"><title>StorageTool</title>
<polygon fill="#abdda4" stroke="black" points="1422.11,-435 1246.11,-435 1246.11,-375 1422.11,-375 1422.11,-435"/>
<text text-anchor="middle" x="1334.11" y="-411.8" font-family="Times,serif" font-size="24.00">logcabin&#45;storage</text>
<text text-anchor="middle" x="1334.11" y="-385.8" font-family="Times,serif" font-size="24.00">(Storage/Tool)</text>
</g>
<!-- StorageTool&#45;&gt;Storage -->
<g id="edge17" class="edge"><title>StorageTool&#45;&gt;Storage</title>
<path fill="none" stroke="black" d="M1326.28,-374.889C1323.16,-363.265 1319.46,-349.525 1315.91,-336.332"/>
<polygon fill="black" stroke="black" points="1319.22,-335.141 1313.24,-326.393 1312.46,-336.959 1319.22,-335.141"/>
</g>
<!-- TreeOps -->
<g id="node15" class="node"><title>TreeOps</title>
<polygon fill="#abdda4" stroke="black" points="801.111,-760 685.111,-760 685.111,-700 801.111,-700 801.111,-760"/>
<text text-anchor="middle" x="743.111" y="-736.8" font-family="Times,serif" font-size="24.00">logcabin</text>
<text text-anchor="middle" x="743.111" y="-710.8" font-family="Times,serif" font-size="24.00">(TreeOps)</text>
</g>
<!-- TreeOps&#45;&gt;Examples -->
<g id="edge18" class="edge"><title>TreeOps&#45;&gt;Examples</title>
<path fill="none" stroke="black" d="M689.294,-699.895C665.676,-687.122 637.727,-672.007 612.887,-658.573"/>
<polygon fill="black" stroke="black" points="614.351,-655.385 603.89,-653.707 611.021,-661.543 614.351,-655.385"/>
</g>
</g>
</svg>
