<?xml version="1.0" encoding="UTF-8" standalone="no"?>
<!DOCTYPE svg PUBLIC "-//W3C//DTD SVG 1.1//EN"
 "http://www.w3.org/Graphics/SVG/1.1/DTD/svg11.dtd">
<!-- Generated by graphviz version 2.38.0 (20140413.2041)
 -->
<!-- Title: dependencies Pages: 1 -->
<svg width="791pt" height="791pt"
 viewBox="0.00 0.00 791.00 791.41" xmlns="http://www.w3.org/2000/svg" xmlns:xlink="http://www.w3.org/1999/xlink">
<g id="graph0" class="graph" transform="scale(1 1) rotate(0) translate(4 787.411)">
<title>dependencies</title>
<!-- Client -->
<g id="node1" class="node"><title>Client</title>
<ellipse fill="#fdae61" stroke="black" cx="250.722" cy="-417" rx="84.7059" ry="42.3529"/>
<text text-anchor="middle" x="250.722" y="-423.8" font-family="Times,serif" font-size="24.00">Client/</text>
<text text-anchor="middle" x="250.722" y="-397.8" font-family="Times,serif" font-size="24.00">3&#45;6K LOC</text>
</g>
<!-- RPC -->
<g id="node6" class="node"><title>RPC</title>
<ellipse fill="#fdae61" stroke="black" cx="257.722" cy="-284" rx="84.7059" ry="42.3529"/>
<text text-anchor="middle" x="257.722" y="-290.8" font-family="Times,serif" font-size="24.00">RPC/</text>
<text text-anchor="middle" x="257.722" y="-264.8" font-family="Times,serif" font-size="24.00">2&#45;7K LOC</text>
</g>
<!-- Client&#45;&gt;RPC -->
<g id="edge1" class="edge"><title>Client&#45;&gt;RPC</title>
<path fill="none" stroke="black" d="M252.937,-374.551C253.576,-362.604 254.28,-349.418 254.948,-336.922"/>
<polygon fill="black" stroke="black" points="258.459,-336.802 255.498,-326.629 251.469,-336.428 258.459,-336.802"/>
</g>
<!-- Tree -->
<g id="node9" class="node"><title>Tree</title>
<ellipse fill="#fdae61" stroke="black" cx="459.722" cy="-284" rx="84.7059" ry="42.3529"/>
<text text-anchor="middle" x="459.722" y="-290.8" font-family="Times,serif" font-size="24.00">Tree/</text>
<text text-anchor="middle" x="459.722" y="-264.8" font-family="Times,serif" font-size="24.00">1&#45;2K LOC</text>
</g>
<!-- Client&#45;&gt;Tree -->
<g id="edge2" class="edge"><title>Client&#45;&gt;Tree</title>
<path fill="none" stroke="black" stroke-dasharray="5,2" d="M302.923,-383.281C331.974,-365.072 368.292,-342.308 398.657,-323.275"/>
<polygon fill="black" stroke="black" points="400.849,-326.032 407.463,-317.756 397.131,-320.101 400.849,-326.032"/>
</g>
<!-- Core -->
<g id="node2" class="node"><title>Core</title>
<ellipse fill="#fdae61" stroke="black" cx="580.722" cy="-42" rx="84.7059" ry="42.3529"/>
<text text-anchor="middle" x="580.722" y="-48.8" font-family="Times,serif" font-size="24.00">Core/</text>
<text text-anchor="middle" x="580.722" y="-22.8" font-family="Times,serif" font-size="24.00">3&#45;7K LOC</text>
</g>
<!-- Event -->
<g id="node3" class="node"><title>Event</title>
<ellipse fill="#fdae61" stroke="black" cx="257.722" cy="-163" rx="84.7059" ry="42.3529"/>
<text text-anchor="middle" x="257.722" y="-169.8" font-family="Times,serif" font-size="24.00">Event/</text>
<text text-anchor="middle" x="257.722" y="-143.8" font-family="Times,serif" font-size="24.00">1&#45;2K LOC</text>
</g>
<!-- Event&#45;&gt;Core -->
<g id="edge3" class="edge"><title>Event&#45;&gt;Core</title>
<path fill="none" stroke="black" d="M323.897,-136.377C337.7,-131.1 352.171,-125.617 365.722,-120.574 410.997,-103.724 461.833,-85.3576 502.701,-70.7267"/>
<polygon fill="black" stroke="black" points="504.093,-73.9461 512.33,-67.2827 501.736,-67.355 504.093,-73.9461"/>
</g>
<!-- Examples -->
<g id="node4" class="node"><title>Examples</title>
<ellipse fill="#fdae61" stroke="black" cx="277.722" cy="-645" rx="84.7059" ry="42.3529"/>
<text text-anchor="middle" x="277.722" y="-651.8" font-family="Times,serif" font-size="24.00">Examples/</text>
<text text-anchor="middle" x="277.722" y="-625.8" font-family="Times,serif" font-size="24.00">1&#45;2K LOC</text>
</g>
<!-- ClientLib -->
<g id="node10" class="node"><title>ClientLib</title>
<polygon fill="#abdda4" stroke="black" points="348.222,-555 207.222,-555 207.222,-519 348.222,-519 348.222,-555"/>
<text text-anchor="middle" x="277.722" y="-530.8" font-family="Times,serif" font-size="24.00">liblogcabin.a</text>
</g>
<!-- Examples&#45;&gt;ClientLib -->
<g id="edge4" class="edge"><title>Examples&#45;&gt;ClientLib</title>
<path fill="none" stroke="black" d="M277.722,-602.41C277.722,-589.927 277.722,-576.558 277.722,-565.253"/>
<polygon fill="black" stroke="black" points="281.222,-565.143 277.722,-555.143 274.222,-565.143 281.222,-565.143"/>
</g>
<!-- Protocol -->
<g id="node5" class="node"><title>Protocol</title>
<ellipse fill="#fdae61" stroke="black" cx="459.722" cy="-163" rx="84.7059" ry="42.3529"/>
<text text-anchor="middle" x="459.722" y="-169.8" font-family="Times,serif" font-size="24.00">Protocol/</text>
<text text-anchor="middle" x="459.722" y="-143.8" font-family="Times,serif" font-size="24.00">0&#45;1K LOC</text>
</g>
<!-- RPC&#45;&gt;Event -->
<g id="edge5" class="edge"><title>RPC&#45;&gt;Event</title>
<path fill="none" stroke="black" d="M257.722,-241.38C257.722,-233.184 257.722,-224.489 257.722,-216.001"/>
<polygon fill="black" stroke="black" points="261.222,-215.798 257.722,-205.798 254.222,-215.798 261.222,-215.798"/>
</g>
<!-- RPC&#45;&gt;Protocol -->
<g id="edge6" class="edge"><title>RPC&#45;&gt;Protocol</title>
<path fill="none" stroke="black" d="M311.855,-251.11C338.112,-235.642 369.8,-216.974 397.096,-200.894"/>
<polygon fill="black" stroke="black" points="398.952,-203.863 405.791,-195.771 395.399,-197.832 398.952,-203.863"/>
</g>
<!-- Server -->
<g id="node7" class="node"><title>Server</title>
<ellipse fill="#2b83ba" stroke="black" cx="467.722" cy="-417" rx="99.61" ry="54"/>
<text text-anchor="middle" x="467.722" y="-425.2" font-family="Mono Bold" font-size="26.00" fill="white">Server/</text>
<text text-anchor="middle" x="467.722" y="-396.2" font-family="Mono Bold" font-size="26.00" fill="white">5&#45;13K LOC</text>
</g>
<!-- Server&#45;&gt;RPC -->
<g id="edge7" class="edge"><title>Server&#45;&gt;RPC</title>
<path fill="none" stroke="black" d="M403.002,-375.627C376.15,-358.876 345.155,-339.542 318.709,-323.044"/>
<polygon fill="black" stroke="black" points="320.265,-319.889 309.928,-317.566 316.56,-325.828 320.265,-319.889"/>
</g>
<!-- Storage -->
<g id="node8" class="node"><title>Storage</title>
<ellipse fill="#fdae61" stroke="black" cx="660.722" cy="-284" rx="84.7059" ry="42.3529"/>
<text text-anchor="middle" x="660.722" y="-290.8" font-family="Times,serif" font-size="24.00">Storage/</text>
<text text-anchor="middle" x="660.722" y="-264.8" font-family="Times,serif" font-size="24.00">3&#45;7K LOC</text>
</g>
<!-- Server&#45;&gt;Storage -->
<g id="edge8" class="edge"><title>Server&#45;&gt;Storage</title>
<path fill="none" stroke="black" d="M529.054,-374.371C552.647,-358.357 579.489,-340.137 602.756,-324.345"/>
<polygon fill="black" stroke="black" points="604.845,-327.157 611.153,-318.645 600.913,-321.366 604.845,-327.157"/>
</g>
<!-- Server&#45;&gt;Tree -->
<g id="edge9" class="edge"><title>Server&#45;&gt;Tree</title>
<path fill="none" stroke="black" d="M464.468,-362.717C463.946,-354.156 463.405,-345.306 462.884,-336.781"/>
<polygon fill="black" stroke="black" points="466.365,-336.352 462.262,-326.584 459.378,-336.779 466.365,-336.352"/>
</g>
<!-- Storage&#45;&gt;Core -->
<g id="edge10" class="edge"><title>Storage&#45;&gt;Core</title>
<path fill="none" stroke="black" d="M647.061,-242.015C633.411,-201.066 612.395,-138.017 597.685,-93.8877"/>
<polygon fill="black" stroke="black" points="600.944,-92.5975 594.461,-84.2175 594.303,-94.8111 600.944,-92.5975"/>
</g>
<!-- Tree&#45;&gt;Core -->
<g id="edge11" class="edge"><title>Tree&#45;&gt;Core</title>
<path fill="none" stroke="black" d="M512.095,-250.596C527.826,-238.335 543.58,-223.026 553.722,-205.426 573.06,-171.87 579.492,-128.338 581.262,-94.788"/>
<polygon fill="black" stroke="black" points="584.762,-94.8524 581.67,-84.7186 577.768,-94.5683 584.762,-94.8524"/>
</g>
<!-- Tree&#45;&gt;Protocol -->
<g id="edge12" class="edge"><title>Tree&#45;&gt;Protocol</title>
<path fill="none" stroke="black" d="M459.722,-241.38C459.722,-233.184 459.722,-224.489 459.722,-216.001"/>
<polygon fill="black" stroke="black" points="463.222,-215.798 459.722,-205.798 456.222,-215.798 463.222,-215.798"/>
</g>
<!-- ClientLib&#45;&gt;Client -->
<g id="edge13" class="edge"><title>ClientLib&#45;&gt;Client</title>
<path fill="none" stroke="black" d="M273.796,-518.842C270.798,-505.736 266.5,-486.956 262.425,-469.147"/>
<polygon fill="black" stroke="black" points="265.837,-468.363 260.194,-459.396 259.013,-469.924 265.837,-468.363"/>
</g>
<!-- Main -->
<g id="node11" class="node"><title>Main</title>
<polygon fill="#abdda4" stroke="black" points="532.222,-567 403.222,-567 403.222,-507 532.222,-507 532.222,-567"/>
<text text-anchor="middle" x="467.722" y="-543.8" font-family="Times,serif" font-size="24.00">logcabind</text>
<text text-anchor="middle" x="467.722" y="-517.8" font-family="Times,serif" font-size="24.00">(LogCabin)</text>
</g>
<!-- Main&#45;&gt;Server -->
<g id="edge14" class="edge"><title>Main&#45;&gt;Server</title>
<path fill="none" stroke="black" d="M467.722,-506.831C467.722,-498.997 467.722,-490.21 467.722,-481.291"/>
<polygon fill="black" stroke="black" points="471.222,-481.21 467.722,-471.21 464.222,-481.21 471.222,-481.21"/>
</g>
<!-- Reconfigure -->
<g id="node12" class="node"><title>Reconfigure</title>
<polygon fill="#abdda4" stroke="black" points="287.722,-783 69.7223,-783 69.7223,-723 287.722,-723 287.722,-783"/>
<text text-anchor="middle" x="178.722" y="-759.8" font-family="Times,serif" font-size="24.00">logcabin&#45;reconfigure</text>
<text text-anchor="middle" x="178.722" y="-733.8" font-family="Times,serif" font-size="24.00">(Reconfigure)</text>
</g>
<!-- Reconfigure&#45;&gt;Examples -->
<g id="edge15" class="edge"><title>Reconfigure&#45;&gt;Examples</title>
<path fill="none" stroke="black" d="M206.037,-722.754C215.063,-713.089 225.331,-702.096 235.219,-691.509"/>
<polygon fill="black" stroke="black" points="238.061,-693.594 242.328,-683.897 232.945,-688.816 238.061,-693.594"/>
</g>
<!-- ServerControl -->
<g id="node13" class="node"><title>ServerControl</title>
<polygon fill="#abdda4" stroke="black" points="175.722,-567 5.7223,-567 5.7223,-507 175.722,-507 175.722,-567"/>
<text text-anchor="middle" x="90.7223" y="-543.8" font-family="Times,serif" font-size="24.00">logcabinctl</text>
<text text-anchor="middle" x="90.7223" y="-517.8" font-family="Times,serif" font-size="24.00">(ServerControl)</text>
</g>
<!-- ServerControl&#45;&gt;Client -->
<g id="edge16" class="edge"><title>ServerControl&#45;&gt;Client</title>
<path fill="none" stroke="black" d="M130.273,-506.831C150.049,-492.247 174.299,-474.362 195.845,-458.472"/>
<polygon fill="black" stroke="black" points="197.984,-461.243 203.955,-452.491 193.829,-455.61 197.984,-461.243"/>
</g>
<!-- StorageTool -->
<g id="node14" class="node"><title>StorageTool</title>
<polygon fill="#abdda4" stroke="black" points="776.722,-447 600.722,-447 600.722,-387 776.722,-387 776.722,-447"/>
<text text-anchor="middle" x="688.722" y="-423.8" font-family="Times,serif" font-size="24.00">logcabin&#45;storage</text>
<text text-anchor="middle" x="688.722" y="-397.8" font-family="Times,serif" font-size="24.00">(Storage/Tool)</text>
</g>
<!-- StorageTool&#45;&gt;Storage -->
<g id="edge17" class="edge"><title>StorageTool&#45;&gt;Storage</title>
<path fill="none" stroke="black" d="M682.508,-386.927C679.33,-372.056 675.366,-353.512 671.694,-336.334"/>
<polygon fill="black" stroke="black" points="675.087,-335.463 669.574,-326.415 668.242,-336.926 675.087,-335.463"/>
</g>
<!-- TreeOps -->
<g id="node15" class="node"><title>TreeOps</title>
<polygon fill="#abdda4" stroke="black" points="434.722,-783 318.722,-783 318.722,-723 434.722,-723 434.722,-783"/>
<text text-anchor="middle" x="376.722" y="-759.8" font-family="Times,serif" font-size="24.00">logcabin</text>
<text text-anchor="middle" x="376.722" y="-733.8" font-family="Times,serif" font-size="24.00">(TreeOps)</text>
</g>
<!-- TreeOps&#45;&gt;Examples -->
<g id="edge18" class="edge"><title>TreeOps&#45;&gt;Examples</title>
<path fill="none" stroke="black" d="M349.408,-722.754C340.381,-713.089 330.113,-702.096 320.226,-691.509"/>
<polygon fill="black" stroke="black" points="322.5,-688.816 313.116,-683.897 317.384,-693.594 322.5,-688.816"/>
</g>
</g>
</svg>
