<?xml version="1.0" encoding="UTF-8" standalone="no"?>
<!DOCTYPE svg PUBLIC "-//W3C//DTD SVG 1.1//EN"
 "http://www.w3.org/Graphics/SVG/1.1/DTD/svg11.dtd">
<!-- Generated by graphviz version 2.38.0 (20140413.2041)
 -->
<!-- Title: dependencies Pages: 1 -->
<svg width="791pt" height="791pt"
 viewBox="0.00 0.00 791.00 791.41" xmlns="http://www.w3.org/2000/svg" xmlns:xlink="http://www.w3.org/1999/xlink">
<g id="graph0" class="graph" transform="scale(1 1) rotate(0) translate(4 787.411)">
<title>dependencies</title>
<!-- Client -->
<g id="node1" class="node"><title>Client</title>
<ellipse fill="#fdae61" stroke="black" cx="257.25" cy="-428" rx="84.7059" ry="42.3529"/>
<text text-anchor="middle" x="257.25" y="-434.8" font-family="Times,serif" font-size="24.00">Client/</text>
<text text-anchor="middle" x="257.25" y="-408.8" font-family="Times,serif" font-size="24.00">3&#45;6K LOC</text>
</g>
<!-- RPC -->
<g id="node6" class="node"><title>RPC</title>
<ellipse fill="#fdae61" stroke="black" cx="262.25" cy="-307" rx="84.7059" ry="42.3529"/>
<text text-anchor="middle" x="262.25" y="-313.8" font-family="Times,serif" font-size="24.00">RPC/</text>
<text text-anchor="middle" x="262.25" y="-287.8" font-family="Times,serif" font-size="24.00">2&#45;7K LOC</text>
</g>
<!-- Client&#45;&gt;RPC -->
<g id="edge1" class="edge"><title>Client&#45;&gt;RPC</title>
<path fill="none" stroke="black" d="M258.999,-385.38C259.343,-377.184 259.708,-368.489 260.065,-360.001"/>
<polygon fill="black" stroke="black" points="263.571,-359.936 260.494,-349.798 256.577,-359.642 263.571,-359.936"/>
</g>
<!-- Tree -->
<g id="node9" class="node"><title>Tree</title>
<ellipse fill="#fdae61" stroke="black" cx="468.25" cy="-307" rx="84.7059" ry="42.3529"/>
<text text-anchor="middle" x="468.25" y="-313.8" font-family="Times,serif" font-size="24.00">Tree/</text>
<text text-anchor="middle" x="468.25" y="-287.8" font-family="Times,serif" font-size="24.00">1&#45;2K LOC</text>
</g>
<!-- Client&#45;&gt;Tree -->
<g id="edge2" class="edge"><title>Client&#45;&gt;Tree</title>
<path fill="none" stroke="black" stroke-dasharray="5,2" d="M312.688,-395.734C340.683,-379.945 374.801,-360.703 403.944,-344.267"/>
<polygon fill="black" stroke="black" points="405.826,-347.224 412.817,-339.263 402.387,-341.127 405.826,-347.224"/>
</g>
<!-- Core -->
<g id="node2" class="node"><title>Core</title>
<ellipse fill="#fdae61" stroke="black" cx="608.25" cy="-42" rx="84.7059" ry="42.3529"/>
<text text-anchor="middle" x="608.25" y="-48.8" font-family="Times,serif" font-size="24.00">Core/</text>
<text text-anchor="middle" x="608.25" y="-22.8" font-family="Times,serif" font-size="24.00">3&#45;7K LOC</text>
</g>
<!-- Event -->
<g id="node3" class="node"><title>Event</title>
<ellipse fill="#fdae61" stroke="black" cx="248.25" cy="-175" rx="84.7059" ry="42.3529"/>
<text text-anchor="middle" x="248.25" y="-181.8" font-family="Times,serif" font-size="24.00">Event/</text>
<text text-anchor="middle" x="248.25" y="-155.8" font-family="Times,serif" font-size="24.00">1&#45;2K LOC</text>
</g>
<!-- Event&#45;&gt;Core -->
<g id="edge3" class="edge"><title>Event&#45;&gt;Core</title>
<path fill="none" stroke="black" d="M306.898,-144.089C323.601,-136.095 341.959,-127.797 359.25,-121 413.386,-99.7208 475.858,-80.1647 524.685,-65.9566"/>
<polygon fill="black" stroke="black" points="525.941,-69.237 534.575,-63.0974 523.997,-62.5124 525.941,-69.237"/>
</g>
<!-- Examples -->
<g id="node4" class="node"><title>Examples</title>
<ellipse fill="#fdae61" stroke="black" cx="281.25" cy="-645" rx="84.7059" ry="42.3529"/>
<text text-anchor="middle" x="281.25" y="-651.8" font-family="Times,serif" font-size="24.00">Examples/</text>
<text text-anchor="middle" x="281.25" y="-625.8" font-family="Times,serif" font-size="24.00">1&#45;2K LOC</text>
</g>
<!-- ClientLib -->
<g id="node10" class="node"><title>ClientLib</title>
<polygon fill="#abdda4" stroke="black" points="351.75,-555 210.75,-555 210.75,-519 351.75,-519 351.75,-555"/>
<text text-anchor="middle" x="281.25" y="-530.8" font-family="Times,serif" font-size="24.00">liblogcabin.a</text>
</g>
<!-- Examples&#45;&gt;ClientLib -->
<g id="edge4" class="edge"><title>Examples&#45;&gt;ClientLib</title>
<path fill="none" stroke="black" d="M281.25,-602.41C281.25,-589.927 281.25,-576.558 281.25,-565.253"/>
<polygon fill="black" stroke="black" points="284.75,-565.143 281.25,-555.143 277.75,-565.143 284.75,-565.143"/>
</g>
<!-- Protocol -->
<g id="node5" class="node"><title>Protocol</title>
<ellipse fill="#2b83ba" stroke="black" cx="468.25" cy="-175" rx="99.61" ry="54"/>
<text text-anchor="middle" x="468.25" y="-183.2" font-family="Mono Bold" font-size="26.00" fill="white">Protocol/</text>
<text text-anchor="middle" x="468.25" y="-154.2" font-family="Mono Bold" font-size="26.00" fill="white">0&#45;1K LOC</text>
</g>
<!-- RPC&#45;&gt;Event -->
<g id="edge5" class="edge"><title>RPC&#45;&gt;Event</title>
<path fill="none" stroke="black" d="M257.782,-264.51C256.519,-252.783 255.129,-239.877 253.81,-227.632"/>
<polygon fill="black" stroke="black" points="257.274,-227.11 252.724,-217.542 250.315,-227.859 257.274,-227.11"/>
</g>
<!-- RPC&#45;&gt;Protocol -->
<g id="edge6" class="edge"><title>RPC&#45;&gt;Protocol</title>
<path fill="none" stroke="black" d="M313.967,-273.363C338.594,-257.822 368.473,-238.966 395.353,-222.003"/>
<polygon fill="black" stroke="black" points="397.376,-224.865 403.964,-216.569 393.64,-218.946 397.376,-224.865"/>
</g>
<!-- Server -->
<g id="node7" class="node"><title>Server</title>
<ellipse fill="#fdae61" stroke="black" cx="471.25" cy="-428" rx="93.1765" ry="42.3529"/>
<text text-anchor="middle" x="471.25" y="-434.8" font-family="Times,serif" font-size="24.00">Server/</text>
<text text-anchor="middle" x="471.25" y="-408.8" font-family="Times,serif" font-size="24.00">5&#45;13K LOC</text>
</g>
<!-- Server&#45;&gt;RPC -->
<g id="edge7" class="edge"><title>Server&#45;&gt;RPC</title>
<path fill="none" stroke="black" d="M413.863,-394.325C386.712,-378.866 354.193,-360.35 326.247,-344.438"/>
<polygon fill="black" stroke="black" points="327.768,-341.277 317.346,-339.371 324.305,-347.36 327.768,-341.277"/>
</g>
<!-- Storage -->
<g id="node8" class="node"><title>Storage</title>
<ellipse fill="#fdae61" stroke="black" cx="673.25" cy="-307" rx="84.7059" ry="42.3529"/>
<text text-anchor="middle" x="673.25" y="-313.8" font-family="Times,serif" font-size="24.00">Storage/</text>
<text text-anchor="middle" x="673.25" y="-287.8" font-family="Times,serif" font-size="24.00">3&#45;7K LOC</text>
</g>
<!-- Server&#45;&gt;Storage -->
<g id="edge8" class="edge"><title>Server&#45;&gt;Storage</title>
<path fill="none" stroke="black" d="M527.25,-394.01C553.056,-378.808 583.788,-360.703 610.385,-345.035"/>
<polygon fill="black" stroke="black" points="612.393,-347.913 619.233,-339.822 608.84,-341.882 612.393,-347.913"/>
</g>
<!-- Server&#45;&gt;Tree -->
<g id="edge9" class="edge"><title>Server&#45;&gt;Tree</title>
<path fill="none" stroke="black" d="M470.201,-385.38C469.994,-377.184 469.775,-368.489 469.561,-360.001"/>
<polygon fill="black" stroke="black" points="473.055,-359.707 469.304,-349.798 466.057,-359.883 473.055,-359.707"/>
</g>
<!-- Storage&#45;&gt;Core -->
<g id="edge10" class="edge"><title>Storage&#45;&gt;Core</title>
<path fill="none" stroke="black" d="M663.022,-264.617C651.617,-218.468 633.16,-143.789 620.867,-94.0493"/>
<polygon fill="black" stroke="black" points="624.215,-93.0099 618.418,-84.1417 617.42,-94.6894 624.215,-93.0099"/>
</g>
<!-- Tree&#45;&gt;Core -->
<g id="edge11" class="edge"><title>Tree&#45;&gt;Core</title>
<path fill="none" stroke="black" d="M527.482,-276.376C546.186,-264.185 565.119,-248.33 577.25,-229 602.49,-188.783 609.081,-134.432 610.052,-94.8727"/>
<polygon fill="black" stroke="black" points="613.555,-94.6877 610.187,-84.6423 606.556,-94.5952 613.555,-94.6877"/>
</g>
<!-- Tree&#45;&gt;Protocol -->
<g id="edge12" class="edge"><title>Tree&#45;&gt;Protocol</title>
<path fill="none" stroke="black" d="M468.25,-264.51C468.25,-256.586 468.25,-248.123 468.25,-239.689"/>
<polygon fill="black" stroke="black" points="471.75,-239.455 468.25,-229.455 464.75,-239.455 471.75,-239.455"/>
</g>
<!-- ClientLib&#45;&gt;Client -->
<g id="edge13" class="edge"><title>ClientLib&#45;&gt;Client</title>
<path fill="none" stroke="black" d="M277.394,-518.809C275.027,-508.255 271.859,-494.133 268.738,-480.218"/>
<polygon fill="black" stroke="black" points="272.089,-479.167 266.486,-470.175 265.259,-480.699 272.089,-479.167"/>
</g>
<!-- Main -->
<g id="node11" class="node"><title>Main</title>
<polygon fill="#abdda4" stroke="black" points="535.75,-567 406.75,-567 406.75,-507 535.75,-507 535.75,-567"/>
<text text-anchor="middle" x="471.25" y="-543.8" font-family="Times,serif" font-size="24.00">logcabind</text>
<text text-anchor="middle" x="471.25" y="-517.8" font-family="Times,serif" font-size="24.00">(LogCabin)</text>
</g>
<!-- Main&#45;&gt;Server -->
<g id="edge14" class="edge"><title>Main&#45;&gt;Server</title>
<path fill="none" stroke="black" d="M471.25,-506.762C471.25,-498.67 471.25,-489.638 471.25,-480.674"/>
<polygon fill="black" stroke="black" points="474.75,-480.637 471.25,-470.637 467.75,-480.637 474.75,-480.637"/>
</g>
<!-- Reconfigure -->
<g id="node12" class="node"><title>Reconfigure</title>
<polygon fill="#abdda4" stroke="black" points="290.25,-783 72.25,-783 72.25,-723 290.25,-723 290.25,-783"/>
<text text-anchor="middle" x="181.25" y="-759.8" font-family="Times,serif" font-size="24.00">logcabin&#45;reconfigure</text>
<text text-anchor="middle" x="181.25" y="-733.8" font-family="Times,serif" font-size="24.00">(Reconfigure)</text>
</g>
<!-- Reconfigure&#45;&gt;Examples -->
<g id="edge15" class="edge"><title>Reconfigure&#45;&gt;Examples</title>
<path fill="none" stroke="black" d="M208.84,-722.754C218.047,-712.996 228.531,-701.882 238.608,-691.2"/>
<polygon fill="black" stroke="black" points="241.182,-693.572 245.498,-683.897 236.09,-688.769 241.182,-693.572"/>
</g>
<!-- ServerControl -->
<g id="node13" class="node"><title>ServerControl</title>
<polygon fill="#abdda4" stroke="black" points="177.25,-567 7.25,-567 7.25,-507 177.25,-507 177.25,-567"/>
<text text-anchor="middle" x="92.25" y="-543.8" font-family="Times,serif" font-size="24.00">logcabinctl</text>
<text text-anchor="middle" x="92.25" y="-517.8" font-family="Times,serif" font-size="24.00">(ServerControl)</text>
</g>
<!-- ServerControl&#45;&gt;Client -->
<g id="edge16" class="edge"><title>ServerControl&#45;&gt;Client</title>
<path fill="none" stroke="black" d="M137.337,-506.762C156.039,-494.634 177.995,-480.396 197.973,-467.441"/>
<polygon fill="black" stroke="black" points="199.912,-470.354 206.398,-461.977 196.104,-464.481 199.912,-470.354"/>
</g>
<!-- StorageTool -->
<g id="node14" class="node"><title>StorageTool</title>
<polygon fill="#abdda4" stroke="black" points="775.25,-458 599.25,-458 599.25,-398 775.25,-398 775.25,-458"/>
<text text-anchor="middle" x="687.25" y="-434.8" font-family="Times,serif" font-size="24.00">logcabin&#45;storage</text>
<text text-anchor="middle" x="687.25" y="-408.8" font-family="Times,serif" font-size="24.00">(Storage/Tool)</text>
</g>
<!-- StorageTool&#45;&gt;Storage -->
<g id="edge17" class="edge"><title>StorageTool&#45;&gt;Storage</title>
<path fill="none" stroke="black" d="M683.825,-397.889C682.458,-386.265 680.841,-372.525 679.289,-359.332"/>
<polygon fill="black" stroke="black" points="682.764,-358.916 678.12,-349.393 675.812,-359.734 682.764,-358.916"/>
</g>
<!-- TreeOps -->
<g id="node15" class="node"><title>TreeOps</title>
<polygon fill="#abdda4" stroke="black" points="441.25,-783 325.25,-783 325.25,-723 441.25,-723 441.25,-783"/>
<text text-anchor="middle" x="383.25" y="-759.8" font-family="Times,serif" font-size="24.00">logcabin</text>
<text text-anchor="middle" x="383.25" y="-733.8" font-family="Times,serif" font-size="24.00">(TreeOps)</text>
</g>
<!-- TreeOps&#45;&gt;Examples -->
<g id="edge18" class="edge"><title>TreeOps&#45;&gt;Examples</title>
<path fill="none" stroke="black" d="M355.108,-722.754C345.622,-712.896 334.805,-701.655 324.43,-690.874"/>
<polygon fill="black" stroke="black" points="326.796,-688.285 317.34,-683.506 321.752,-693.138 326.796,-688.285"/>
</g>
</g>
</svg>
