<?xml version="1.0" encoding="UTF-8" standalone="no"?>
<!DOCTYPE svg PUBLIC "-//W3C//DTD SVG 1.1//EN"
 "http://www.w3.org/Graphics/SVG/1.1/DTD/svg11.dtd">
<!-- Generated by graphviz version 2.38.0 (20140413.2041)
 -->
<!-- Title: dependencies Pages: 1 -->
<svg width="791pt" height="791pt"
 viewBox="0.00 0.00 791.00 791.41" xmlns="http://www.w3.org/2000/svg" xmlns:xlink="http://www.w3.org/1999/xlink">
<g id="graph0" class="graph" transform="scale(1 1) rotate(0) translate(4 787.411)">
<title>dependencies</title>
<!-- Client -->
<g id="node1" class="node"><title>Client</title>
<ellipse fill="#2b83ba" stroke="black" cx="253.174" cy="-417" rx="90.1597" ry="54"/>
<text text-anchor="middle" x="253.174" y="-425.2" font-family="Mono Bold" font-size="26.00" fill="white">Client/</text>
<text text-anchor="middle" x="253.174" y="-396.2" font-family="Mono Bold" font-size="26.00" fill="white">3&#45;6K LOC</text>
</g>
<!-- RPC -->
<g id="node6" class="node"><title>RPC</title>
<ellipse fill="#fdae61" stroke="black" cx="261.174" cy="-284" rx="84.7059" ry="42.3529"/>
<text text-anchor="middle" x="261.174" y="-290.8" font-family="Times,serif" font-size="24.00">RPC/</text>
<text text-anchor="middle" x="261.174" y="-264.8" font-family="Times,serif" font-size="24.00">2&#45;7K LOC</text>
</g>
<!-- Client&#45;&gt;RPC -->
<g id="edge1" class="edge"><title>Client&#45;&gt;RPC</title>
<path fill="none" stroke="black" d="M256.428,-362.717C256.951,-354.156 257.491,-345.306 258.012,-336.781"/>
<polygon fill="black" stroke="black" points="261.519,-336.779 258.635,-326.584 254.532,-336.352 261.519,-336.779"/>
</g>
<!-- Tree -->
<g id="node9" class="node"><title>Tree</title>
<ellipse fill="#fdae61" stroke="black" cx="464.174" cy="-284" rx="84.7059" ry="42.3529"/>
<text text-anchor="middle" x="464.174" y="-290.8" font-family="Times,serif" font-size="24.00">Tree/</text>
<text text-anchor="middle" x="464.174" y="-264.8" font-family="Times,serif" font-size="24.00">1&#45;2K LOC</text>
</g>
<!-- Client&#45;&gt;Tree -->
<g id="edge2" class="edge"><title>Client&#45;&gt;Tree</title>
<path fill="none" stroke="black" stroke-dasharray="5,2" d="M315.056,-377.581C342.816,-360.345 375.468,-340.074 403.129,-322.9"/>
<polygon fill="black" stroke="black" points="405.273,-325.689 411.922,-317.441 401.58,-319.742 405.273,-325.689"/>
</g>
<!-- Core -->
<g id="node2" class="node"><title>Core</title>
<ellipse fill="#fdae61" stroke="black" cx="587.174" cy="-42" rx="84.7059" ry="42.3529"/>
<text text-anchor="middle" x="587.174" y="-48.8" font-family="Times,serif" font-size="24.00">Core/</text>
<text text-anchor="middle" x="587.174" y="-22.8" font-family="Times,serif" font-size="24.00">3&#45;7K LOC</text>
</g>
<!-- Event -->
<g id="node3" class="node"><title>Event</title>
<ellipse fill="#fdae61" stroke="black" cx="261.174" cy="-163" rx="84.7059" ry="42.3529"/>
<text text-anchor="middle" x="261.174" y="-169.8" font-family="Times,serif" font-size="24.00">Event/</text>
<text text-anchor="middle" x="261.174" y="-143.8" font-family="Times,serif" font-size="24.00">1&#45;2K LOC</text>
</g>
<!-- Event&#45;&gt;Core -->
<g id="edge3" class="edge"><title>Event&#45;&gt;Core</title>
<path fill="none" stroke="black" d="M327.673,-136.486C341.69,-131.175 356.404,-125.651 370.174,-120.574 416.144,-103.623 467.789,-85.1386 509.161,-70.4662"/>
<polygon fill="black" stroke="black" points="510.378,-73.7484 518.635,-67.1094 508.04,-67.1503 510.378,-73.7484"/>
</g>
<!-- Examples -->
<g id="node4" class="node"><title>Examples</title>
<ellipse fill="#fdae61" stroke="black" cx="280.174" cy="-645" rx="84.7059" ry="42.3529"/>
<text text-anchor="middle" x="280.174" y="-651.8" font-family="Times,serif" font-size="24.00">Examples/</text>
<text text-anchor="middle" x="280.174" y="-625.8" font-family="Times,serif" font-size="24.00">1&#45;2K LOC</text>
</g>
<!-- ClientLib -->
<g id="node10" class="node"><title>ClientLib</title>
<polygon fill="#abdda4" stroke="black" points="350.674,-555 209.674,-555 209.674,-519 350.674,-519 350.674,-555"/>
<text text-anchor="middle" x="280.174" y="-530.8" font-family="Times,serif" font-size="24.00">liblogcabin.a</text>
</g>
<!-- Examples&#45;&gt;ClientLib -->
<g id="edge4" class="edge"><title>Examples&#45;&gt;ClientLib</title>
<path fill="none" stroke="black" d="M280.174,-602.41C280.174,-589.927 280.174,-576.558 280.174,-565.253"/>
<polygon fill="black" stroke="black" points="283.674,-565.143 280.174,-555.143 276.674,-565.143 283.674,-565.143"/>
</g>
<!-- Protocol -->
<g id="node5" class="node"><title>Protocol</title>
<ellipse fill="#fdae61" stroke="black" cx="464.174" cy="-163" rx="84.7059" ry="42.3529"/>
<text text-anchor="middle" x="464.174" y="-169.8" font-family="Times,serif" font-size="24.00">Protocol/</text>
<text text-anchor="middle" x="464.174" y="-143.8" font-family="Times,serif" font-size="24.00">0&#45;1K LOC</text>
</g>
<!-- RPC&#45;&gt;Event -->
<g id="edge5" class="edge"><title>RPC&#45;&gt;Event</title>
<path fill="none" stroke="black" d="M261.174,-241.38C261.174,-233.184 261.174,-224.489 261.174,-216.001"/>
<polygon fill="black" stroke="black" points="264.674,-215.798 261.174,-205.798 257.674,-215.798 264.674,-215.798"/>
</g>
<!-- RPC&#45;&gt;Protocol -->
<g id="edge6" class="edge"><title>RPC&#45;&gt;Protocol</title>
<path fill="none" stroke="black" d="M315.308,-251.267C341.698,-235.797 373.594,-217.099 401.082,-200.985"/>
<polygon fill="black" stroke="black" points="402.982,-203.928 409.839,-195.852 399.442,-197.889 402.982,-203.928"/>
</g>
<!-- Server -->
<g id="node7" class="node"><title>Server</title>
<ellipse fill="#fdae61" stroke="black" cx="472.174" cy="-417" rx="93.1765" ry="42.3529"/>
<text text-anchor="middle" x="472.174" y="-423.8" font-family="Times,serif" font-size="24.00">Server/</text>
<text text-anchor="middle" x="472.174" y="-397.8" font-family="Times,serif" font-size="24.00">5&#45;13K LOC</text>
</g>
<!-- Server&#45;&gt;RPC -->
<g id="edge7" class="edge"><title>Server&#45;&gt;RPC</title>
<path fill="none" stroke="black" d="M417.837,-382.264C388.608,-364.118 352.467,-341.679 322.265,-322.928"/>
<polygon fill="black" stroke="black" points="323.849,-319.792 313.507,-317.491 320.157,-325.739 323.849,-319.792"/>
</g>
<!-- Storage -->
<g id="node8" class="node"><title>Storage</title>
<ellipse fill="#fdae61" stroke="black" cx="668.174" cy="-284" rx="84.7059" ry="42.3529"/>
<text text-anchor="middle" x="668.174" y="-290.8" font-family="Times,serif" font-size="24.00">Storage/</text>
<text text-anchor="middle" x="668.174" y="-264.8" font-family="Times,serif" font-size="24.00">3&#45;7K LOC</text>
</g>
<!-- Server&#45;&gt;Storage -->
<g id="edge8" class="edge"><title>Server&#45;&gt;Storage</title>
<path fill="none" stroke="black" d="M523.671,-381.581C550.087,-363.925 582.372,-342.347 609.72,-324.069"/>
<polygon fill="black" stroke="black" points="611.668,-326.977 618.037,-318.51 607.778,-321.157 611.668,-326.977"/>
</g>
<!-- Server&#45;&gt;Tree -->
<g id="edge9" class="edge"><title>Server&#45;&gt;Tree</title>
<path fill="none" stroke="black" d="M469.643,-374.551C468.913,-362.604 468.108,-349.418 467.345,-336.922"/>
<polygon fill="black" stroke="black" points="470.82,-336.397 466.717,-326.629 463.833,-336.824 470.82,-336.397"/>
</g>
<!-- Storage&#45;&gt;Core -->
<g id="edge10" class="edge"><title>Storage&#45;&gt;Core</title>
<path fill="none" stroke="black" d="M654.342,-242.015C640.521,-201.066 619.243,-138.017 604.349,-93.8877"/>
<polygon fill="black" stroke="black" points="607.599,-92.5732 601.085,-84.2175 600.967,-94.8117 607.599,-92.5732"/>
</g>
<!-- Tree&#45;&gt;Core -->
<g id="edge11" class="edge"><title>Tree&#45;&gt;Core</title>
<path fill="none" stroke="black" d="M516.424,-250.524C532.147,-238.258 547.927,-222.965 558.174,-205.426 577.752,-171.917 584.73,-128.382 586.961,-94.8194"/>
<polygon fill="black" stroke="black" points="590.461,-94.9212 587.51,-84.7456 583.471,-94.5405 590.461,-94.9212"/>
</g>
<!-- Tree&#45;&gt;Protocol -->
<g id="edge12" class="edge"><title>Tree&#45;&gt;Protocol</title>
<path fill="none" stroke="black" d="M464.174,-241.38C464.174,-233.184 464.174,-224.489 464.174,-216.001"/>
<polygon fill="black" stroke="black" points="467.674,-215.798 464.174,-205.798 460.674,-215.798 467.674,-215.798"/>
</g>
<!-- ClientLib&#45;&gt;Client -->
<g id="edge13" class="edge"><title>ClientLib&#45;&gt;Client</title>
<path fill="none" stroke="black" d="M276.248,-518.842C273.883,-508.507 270.711,-494.643 267.477,-480.509"/>
<polygon fill="black" stroke="black" points="270.88,-479.688 265.238,-470.721 264.056,-481.25 270.88,-479.688"/>
</g>
<!-- Main -->
<g id="node11" class="node"><title>Main</title>
<polygon fill="#abdda4" stroke="black" points="536.674,-567 407.674,-567 407.674,-507 536.674,-507 536.674,-567"/>
<text text-anchor="middle" x="472.174" y="-543.8" font-family="Times,serif" font-size="24.00">logcabind</text>
<text text-anchor="middle" x="472.174" y="-517.8" font-family="Times,serif" font-size="24.00">(LogCabin)</text>
</g>
<!-- Main&#45;&gt;Server -->
<g id="edge14" class="edge"><title>Main&#45;&gt;Server</title>
<path fill="none" stroke="black" d="M472.174,-506.831C472.174,-495.63 472.174,-482.482 472.174,-469.787"/>
<polygon fill="black" stroke="black" points="475.674,-469.748 472.174,-459.748 468.674,-469.748 475.674,-469.748"/>
</g>
<!-- Reconfigure -->
<g id="node12" class="node"><title>Reconfigure</title>
<polygon fill="#abdda4" stroke="black" points="290.174,-783 72.1743,-783 72.1743,-723 290.174,-723 290.174,-783"/>
<text text-anchor="middle" x="181.174" y="-759.8" font-family="Times,serif" font-size="24.00">logcabin&#45;reconfigure</text>
<text text-anchor="middle" x="181.174" y="-733.8" font-family="Times,serif" font-size="24.00">(Reconfigure)</text>
</g>
<!-- Reconfigure&#45;&gt;Examples -->
<g id="edge15" class="edge"><title>Reconfigure&#45;&gt;Examples</title>
<path fill="none" stroke="black" d="M208.489,-722.754C217.515,-713.089 227.783,-702.096 237.671,-691.509"/>
<polygon fill="black" stroke="black" points="240.513,-693.594 244.78,-683.897 235.397,-688.816 240.513,-693.594"/>
</g>
<!-- ServerControl -->
<g id="node13" class="node"><title>ServerControl</title>
<polygon fill="#abdda4" stroke="black" points="177.174,-567 7.17427,-567 7.17427,-507 177.174,-507 177.174,-567"/>
<text text-anchor="middle" x="92.1743" y="-543.8" font-family="Times,serif" font-size="24.00">logcabinctl</text>
<text text-anchor="middle" x="92.1743" y="-517.8" font-family="Times,serif" font-size="24.00">(ServerControl)</text>
</g>
<!-- ServerControl&#45;&gt;Client -->
<g id="edge16" class="edge"><title>ServerControl&#45;&gt;Client</title>
<path fill="none" stroke="black" d="M131.972,-506.831C149.083,-494.291 169.522,-479.31 188.698,-465.256"/>
<polygon fill="black" stroke="black" points="190.829,-468.034 196.825,-459.299 186.691,-462.388 190.829,-468.034"/>
</g>
<!-- StorageTool -->
<g id="node14" class="node"><title>StorageTool</title>
<polygon fill="#abdda4" stroke="black" points="776.174,-447 600.174,-447 600.174,-387 776.174,-387 776.174,-447"/>
<text text-anchor="middle" x="688.174" y="-423.8" font-family="Times,serif" font-size="24.00">logcabin&#45;storage</text>
<text text-anchor="middle" x="688.174" y="-397.8" font-family="Times,serif" font-size="24.00">(Storage/Tool)</text>
</g>
<!-- StorageTool&#45;&gt;Storage -->
<g id="edge17" class="edge"><title>StorageTool&#45;&gt;Storage</title>
<path fill="none" stroke="black" d="M683.736,-386.927C681.465,-372.056 678.634,-353.512 676.012,-336.334"/>
<polygon fill="black" stroke="black" points="679.466,-335.773 674.497,-326.415 672.547,-336.829 679.466,-335.773"/>
</g>
<!-- TreeOps -->
<g id="node15" class="node"><title>TreeOps</title>
<polygon fill="#abdda4" stroke="black" points="439.174,-783 323.174,-783 323.174,-723 439.174,-723 439.174,-783"/>
<text text-anchor="middle" x="381.174" y="-759.8" font-family="Times,serif" font-size="24.00">logcabin</text>
<text text-anchor="middle" x="381.174" y="-733.8" font-family="Times,serif" font-size="24.00">(TreeOps)</text>
</g>
<!-- TreeOps&#45;&gt;Examples -->
<g id="edge18" class="edge"><title>TreeOps&#45;&gt;Examples</title>
<path fill="none" stroke="black" d="M353.308,-722.754C343.915,-712.896 333.204,-701.655 322.931,-690.874"/>
<polygon fill="black" stroke="black" points="325.343,-688.331 315.911,-683.506 320.275,-693.16 325.343,-688.331"/>
</g>
</g>
</svg>
