<?xml version="1.0" encoding="UTF-8" standalone="no"?>
<!DOCTYPE svg PUBLIC "-//W3C//DTD SVG 1.1//EN"
 "http://www.w3.org/Graphics/SVG/1.1/DTD/svg11.dtd">
<!-- Generated by graphviz version 2.38.0 (20140413.2041)
 -->
<!-- Title: dependencies Pages: 1 -->
<svg width="791pt" height="791pt"
 viewBox="0.00 0.00 791.00 791.41" xmlns="http://www.w3.org/2000/svg" xmlns:xlink="http://www.w3.org/1999/xlink">
<g id="graph0" class="graph" transform="scale(1 1) rotate(0) translate(4 787.411)">
<title>dependencies</title>
<!-- Client -->
<g id="node1" class="node"><title>Client</title>
<ellipse fill="#fdae61" stroke="black" cx="257.25" cy="-428" rx="84.7059" ry="42.3529"/>
<text text-anchor="middle" x="257.25" y="-434.8" font-family="Times,serif" font-size="24.00">Client/</text>
<text text-anchor="middle" x="257.25" y="-408.8" font-family="Times,serif" font-size="24.00">3&#45;6K LOC</text>
</g>
<!-- RPC -->
<g id="node6" class="node"><title>RPC</title>
<ellipse fill="#fdae61" stroke="black" cx="259.25" cy="-307" rx="84.7059" ry="42.3529"/>
<text text-anchor="middle" x="259.25" y="-313.8" font-family="Times,serif" font-size="24.00">RPC/</text>
<text text-anchor="middle" x="259.25" y="-287.8" font-family="Times,serif" font-size="24.00">2&#45;7K LOC</text>
</g>
<!-- Client&#45;&gt;RPC -->
<g id="edge1" class="edge"><title>Client&#45;&gt;RPC</title>
<path fill="none" stroke="black" d="M257.95,-385.38C258.087,-377.184 258.233,-368.489 258.376,-360.001"/>
<polygon fill="black" stroke="black" points="261.879,-359.856 258.548,-349.798 254.88,-359.738 261.879,-359.856"/>
</g>
<!-- Tree -->
<g id="node9" class="node"><title>Tree</title>
<ellipse fill="#fdae61" stroke="black" cx="466.25" cy="-307" rx="84.7059" ry="42.3529"/>
<text text-anchor="middle" x="466.25" y="-313.8" font-family="Times,serif" font-size="24.00">Tree/</text>
<text text-anchor="middle" x="466.25" y="-287.8" font-family="Times,serif" font-size="24.00">1&#45;2K LOC</text>
</g>
<!-- Client&#45;&gt;Tree -->
<g id="edge2" class="edge"><title>Client&#45;&gt;Tree</title>
<path fill="none" stroke="black" stroke-dasharray="5,2" d="M312.436,-395.578C340.055,-379.853 373.638,-360.731 402.369,-344.372"/>
<polygon fill="black" stroke="black" points="404.159,-347.381 411.118,-339.391 400.696,-341.298 404.159,-347.381"/>
</g>
<!-- Core -->
<g id="node2" class="node"><title>Core</title>
<ellipse fill="#fdae61" stroke="black" cx="589.25" cy="-42" rx="84.7059" ry="42.3529"/>
<text text-anchor="middle" x="589.25" y="-48.8" font-family="Times,serif" font-size="24.00">Core/</text>
<text text-anchor="middle" x="589.25" y="-22.8" font-family="Times,serif" font-size="24.00">3&#45;7K LOC</text>
</g>
<!-- Event -->
<g id="node3" class="node"><title>Event</title>
<ellipse fill="#2b83ba" stroke="black" cx="256.25" cy="-175" rx="90.1597" ry="54"/>
<text text-anchor="middle" x="256.25" y="-183.2" font-family="Mono Bold" font-size="26.00" fill="white">Event/</text>
<text text-anchor="middle" x="256.25" y="-154.2" font-family="Mono Bold" font-size="26.00" fill="white">1&#45;2K LOC</text>
</g>
<!-- Event&#45;&gt;Core -->
<g id="edge3" class="edge"><title>Event&#45;&gt;Core</title>
<path fill="none" stroke="black" d="M326.385,-140.819C341.417,-134.027 357.281,-127.097 372.25,-121 417.309,-102.646 468.492,-84.1388 509.83,-69.7611"/>
<polygon fill="black" stroke="black" points="511,-73.0598 519.303,-66.4784 508.708,-66.4456 511,-73.0598"/>
</g>
<!-- Examples -->
<g id="node4" class="node"><title>Examples</title>
<ellipse fill="#fdae61" stroke="black" cx="281.25" cy="-645" rx="84.7059" ry="42.3529"/>
<text text-anchor="middle" x="281.25" y="-651.8" font-family="Times,serif" font-size="24.00">Examples/</text>
<text text-anchor="middle" x="281.25" y="-625.8" font-family="Times,serif" font-size="24.00">1&#45;2K LOC</text>
</g>
<!-- ClientLib -->
<g id="node10" class="node"><title>ClientLib</title>
<polygon fill="#abdda4" stroke="black" points="351.75,-555 210.75,-555 210.75,-519 351.75,-519 351.75,-555"/>
<text text-anchor="middle" x="281.25" y="-530.8" font-family="Times,serif" font-size="24.00">liblogcabin.a</text>
</g>
<!-- Examples&#45;&gt;ClientLib -->
<g id="edge4" class="edge"><title>Examples&#45;&gt;ClientLib</title>
<path fill="none" stroke="black" d="M281.25,-602.41C281.25,-589.927 281.25,-576.558 281.25,-565.253"/>
<polygon fill="black" stroke="black" points="284.75,-565.143 281.25,-555.143 277.75,-565.143 284.75,-565.143"/>
</g>
<!-- Protocol -->
<g id="node5" class="node"><title>Protocol</title>
<ellipse fill="#fdae61" stroke="black" cx="466.25" cy="-175" rx="84.7059" ry="42.3529"/>
<text text-anchor="middle" x="466.25" y="-181.8" font-family="Times,serif" font-size="24.00">Protocol/</text>
<text text-anchor="middle" x="466.25" y="-155.8" font-family="Times,serif" font-size="24.00">0&#45;1K LOC</text>
</g>
<!-- RPC&#45;&gt;Event -->
<g id="edge5" class="edge"><title>RPC&#45;&gt;Event</title>
<path fill="none" stroke="black" d="M258.293,-264.51C258.11,-256.586 257.914,-248.123 257.72,-239.689"/>
<polygon fill="black" stroke="black" points="261.213,-239.371 257.484,-229.455 254.215,-239.533 261.213,-239.371"/>
</g>
<!-- RPC&#45;&gt;Protocol -->
<g id="edge6" class="edge"><title>RPC&#45;&gt;Protocol</title>
<path fill="none" stroke="black" d="M311.218,-273.363C339.885,-255.36 375.633,-232.909 405.576,-214.104"/>
<polygon fill="black" stroke="black" points="407.654,-216.932 414.261,-208.65 403.931,-211.005 407.654,-216.932"/>
</g>
<!-- Server -->
<g id="node7" class="node"><title>Server</title>
<ellipse fill="#fdae61" stroke="black" cx="471.25" cy="-428" rx="93.1765" ry="42.3529"/>
<text text-anchor="middle" x="471.25" y="-434.8" font-family="Times,serif" font-size="24.00">Server/</text>
<text text-anchor="middle" x="471.25" y="-408.8" font-family="Times,serif" font-size="24.00">5&#45;13K LOC</text>
</g>
<!-- Server&#45;&gt;RPC -->
<g id="edge7" class="edge"><title>Server&#45;&gt;RPC</title>
<path fill="none" stroke="black" d="M413.32,-394.483C385.664,-378.959 352.469,-360.326 323.985,-344.337"/>
<polygon fill="black" stroke="black" points="325.349,-341.089 314.916,-339.246 321.923,-347.193 325.349,-341.089"/>
</g>
<!-- Storage -->
<g id="node8" class="node"><title>Storage</title>
<ellipse fill="#fdae61" stroke="black" cx="671.25" cy="-307" rx="84.7059" ry="42.3529"/>
<text text-anchor="middle" x="671.25" y="-313.8" font-family="Times,serif" font-size="24.00">Storage/</text>
<text text-anchor="middle" x="671.25" y="-287.8" font-family="Times,serif" font-size="24.00">3&#45;7K LOC</text>
</g>
<!-- Server&#45;&gt;Storage -->
<g id="edge8" class="edge"><title>Server&#45;&gt;Storage</title>
<path fill="none" stroke="black" d="M526.961,-393.852C552.403,-378.714 582.638,-360.724 608.842,-345.133"/>
<polygon fill="black" stroke="black" points="610.757,-348.066 617.561,-339.945 607.178,-342.05 610.757,-348.066"/>
</g>
<!-- Server&#45;&gt;Tree -->
<g id="edge9" class="edge"><title>Server&#45;&gt;Tree</title>
<path fill="none" stroke="black" d="M469.501,-385.38C469.157,-377.184 468.792,-368.489 468.435,-360.001"/>
<polygon fill="black" stroke="black" points="471.923,-359.642 468.006,-349.798 464.929,-359.936 471.923,-359.642"/>
</g>
<!-- Storage&#45;&gt;Core -->
<g id="edge10" class="edge"><title>Storage&#45;&gt;Core</title>
<path fill="none" stroke="black" d="M658.438,-264.906C644.038,-218.721 620.646,-143.698 605.106,-93.8551"/>
<polygon fill="black" stroke="black" points="608.426,-92.7432 602.108,-84.2383 601.743,-94.8269 608.426,-92.7432"/>
</g>
<!-- Tree&#45;&gt;Core -->
<g id="edge11" class="edge"><title>Tree&#45;&gt;Core</title>
<path fill="none" stroke="black" d="M519.216,-273.583C534.789,-261.485 550.299,-246.396 560.25,-229 583.711,-187.984 589.922,-133.971 590.884,-94.7228"/>
<polygon fill="black" stroke="black" points="594.386,-94.6222 591.025,-84.5746 587.386,-94.5251 594.386,-94.6222"/>
</g>
<!-- Tree&#45;&gt;Protocol -->
<g id="edge12" class="edge"><title>Tree&#45;&gt;Protocol</title>
<path fill="none" stroke="black" d="M466.25,-264.51C466.25,-252.783 466.25,-239.877 466.25,-227.632"/>
<polygon fill="black" stroke="black" points="469.75,-227.542 466.25,-217.542 462.75,-227.542 469.75,-227.542"/>
</g>
<!-- ClientLib&#45;&gt;Client -->
<g id="edge13" class="edge"><title>ClientLib&#45;&gt;Client</title>
<path fill="none" stroke="black" d="M277.394,-518.809C275.027,-508.255 271.859,-494.133 268.738,-480.218"/>
<polygon fill="black" stroke="black" points="272.089,-479.167 266.486,-470.175 265.259,-480.699 272.089,-479.167"/>
</g>
<!-- Main -->
<g id="node11" class="node"><title>Main</title>
<polygon fill="#abdda4" stroke="black" points="535.75,-567 406.75,-567 406.75,-507 535.75,-507 535.75,-567"/>
<text text-anchor="middle" x="471.25" y="-543.8" font-family="Times,serif" font-size="24.00">logcabind</text>
<text text-anchor="middle" x="471.25" y="-517.8" font-family="Times,serif" font-size="24.00">(LogCabin)</text>
</g>
<!-- Main&#45;&gt;Server -->
<g id="edge14" class="edge"><title>Main&#45;&gt;Server</title>
<path fill="none" stroke="black" d="M471.25,-506.762C471.25,-498.67 471.25,-489.638 471.25,-480.674"/>
<polygon fill="black" stroke="black" points="474.75,-480.637 471.25,-470.637 467.75,-480.637 474.75,-480.637"/>
</g>
<!-- Reconfigure -->
<g id="node12" class="node"><title>Reconfigure</title>
<polygon fill="#abdda4" stroke="black" points="290.25,-783 72.25,-783 72.25,-723 290.25,-723 290.25,-783"/>
<text text-anchor="middle" x="181.25" y="-759.8" font-family="Times,serif" font-size="24.00">logcabin&#45;reconfigure</text>
<text text-anchor="middle" x="181.25" y="-733.8" font-family="Times,serif" font-size="24.00">(Reconfigure)</text>
</g>
<!-- Reconfigure&#45;&gt;Examples -->
<g id="edge15" class="edge"><title>Reconfigure&#45;&gt;Examples</title>
<path fill="none" stroke="black" d="M208.84,-722.754C218.047,-712.996 228.531,-701.882 238.608,-691.2"/>
<polygon fill="black" stroke="black" points="241.182,-693.572 245.498,-683.897 236.09,-688.769 241.182,-693.572"/>
</g>
<!-- ServerControl -->
<g id="node13" class="node"><title>ServerControl</title>
<polygon fill="#abdda4" stroke="black" points="177.25,-567 7.25,-567 7.25,-507 177.25,-507 177.25,-567"/>
<text text-anchor="middle" x="92.25" y="-543.8" font-family="Times,serif" font-size="24.00">logcabinctl</text>
<text text-anchor="middle" x="92.25" y="-517.8" font-family="Times,serif" font-size="24.00">(ServerControl)</text>
</g>
<!-- ServerControl&#45;&gt;Client -->
<g id="edge16" class="edge"><title>ServerControl&#45;&gt;Client</title>
<path fill="none" stroke="black" d="M137.337,-506.762C156.039,-494.634 177.995,-480.396 197.973,-467.441"/>
<polygon fill="black" stroke="black" points="199.912,-470.354 206.398,-461.977 196.104,-464.481 199.912,-470.354"/>
</g>
<!-- StorageTool -->
<g id="node14" class="node"><title>StorageTool</title>
<polygon fill="#abdda4" stroke="black" points="775.25,-458 599.25,-458 599.25,-398 775.25,-398 775.25,-458"/>
<text text-anchor="middle" x="687.25" y="-434.8" font-family="Times,serif" font-size="24.00">logcabin&#45;storage</text>
<text text-anchor="middle" x="687.25" y="-408.8" font-family="Times,serif" font-size="24.00">(Storage/Tool)</text>
</g>
<!-- StorageTool&#45;&gt;Storage -->
<g id="edge17" class="edge"><title>StorageTool&#45;&gt;Storage</title>
<path fill="none" stroke="black" d="M683.336,-397.889C681.773,-386.265 679.926,-372.525 678.152,-359.332"/>
<polygon fill="black" stroke="black" points="681.617,-358.838 676.815,-349.393 674.679,-359.771 681.617,-358.838"/>
</g>
<!-- TreeOps -->
<g id="node15" class="node"><title>TreeOps</title>
<polygon fill="#abdda4" stroke="black" points="441.25,-783 325.25,-783 325.25,-723 441.25,-723 441.25,-783"/>
<text text-anchor="middle" x="383.25" y="-759.8" font-family="Times,serif" font-size="24.00">logcabin</text>
<text text-anchor="middle" x="383.25" y="-733.8" font-family="Times,serif" font-size="24.00">(TreeOps)</text>
</g>
<!-- TreeOps&#45;&gt;Examples -->
<g id="edge18" class="edge"><title>TreeOps&#45;&gt;Examples</title>
<path fill="none" stroke="black" d="M355.108,-722.754C345.622,-712.896 334.805,-701.655 324.43,-690.874"/>
<polygon fill="black" stroke="black" points="326.796,-688.285 317.34,-683.506 321.752,-693.138 326.796,-688.285"/>
</g>
</g>
</svg>
