<?xml version="1.0" encoding="UTF-8" standalone="no"?>
<!DOCTYPE svg PUBLIC "-//W3C//DTD SVG 1.1//EN"
 "http://www.w3.org/Graphics/SVG/1.1/DTD/svg11.dtd">
<!-- Generated by graphviz version 2.38.0 (20140413.2041)
 -->
<!-- Title: dependencies Pages: 1 -->
<svg width="791pt" height="791pt"
 viewBox="0.00 0.00 791.00 791.41" xmlns="http://www.w3.org/2000/svg" xmlns:xlink="http://www.w3.org/1999/xlink">
<g id="graph0" class="graph" transform="scale(1 1) rotate(0) translate(4 787.411)">
<title>dependencies</title>
<!-- Client -->
<g id="node1" class="node"><title>Client</title>
<ellipse fill="#fdae61" stroke="black" cx="257.687" cy="-428" rx="84.7059" ry="42.3529"/>
<text text-anchor="middle" x="257.687" y="-434.8" font-family="Times,serif" font-size="24.00">Client/</text>
<text text-anchor="middle" x="257.687" y="-408.8" font-family="Times,serif" font-size="24.00">3&#45;6K LOC</text>
</g>
<!-- RPC -->
<g id="node6" class="node"><title>RPC</title>
<ellipse fill="#2b83ba" stroke="black" cx="258.687" cy="-296" rx="90.1597" ry="54"/>
<text text-anchor="middle" x="258.687" y="-304.2" font-family="Mono Bold" font-size="26.00" fill="white">RPC/</text>
<text text-anchor="middle" x="258.687" y="-275.2" font-family="Mono Bold" font-size="26.00" fill="white">2&#45;7K LOC</text>
</g>
<!-- Client&#45;&gt;RPC -->
<g id="edge1" class="edge"><title>Client&#45;&gt;RPC</title>
<path fill="none" stroke="black" d="M258.007,-385.51C258.068,-377.586 258.133,-369.123 258.198,-360.689"/>
<polygon fill="black" stroke="black" points="261.699,-360.482 258.276,-350.455 254.699,-360.428 261.699,-360.482"/>
</g>
<!-- Tree -->
<g id="node9" class="node"><title>Tree</title>
<ellipse fill="#fdae61" stroke="black" cx="468.687" cy="-296" rx="84.7059" ry="42.3529"/>
<text text-anchor="middle" x="468.687" y="-302.8" font-family="Times,serif" font-size="24.00">Tree/</text>
<text text-anchor="middle" x="468.687" y="-276.8" font-family="Times,serif" font-size="24.00">1&#45;2K LOC</text>
</g>
<!-- Client&#45;&gt;Tree -->
<g id="edge2" class="edge"><title>Client&#45;&gt;Tree</title>
<path fill="none" stroke="black" stroke-dasharray="5,2" d="M310.387,-394.531C339.717,-376.46 376.382,-353.871 407.038,-334.983"/>
<polygon fill="black" stroke="black" points="409.25,-337.731 415.928,-329.506 405.578,-331.771 409.25,-337.731"/>
</g>
<!-- Core -->
<g id="node2" class="node"><title>Core</title>
<ellipse fill="#fdae61" stroke="black" cx="585.688" cy="-42" rx="84.7059" ry="42.3529"/>
<text text-anchor="middle" x="585.688" y="-48.8" font-family="Times,serif" font-size="24.00">Core/</text>
<text text-anchor="middle" x="585.688" y="-22.8" font-family="Times,serif" font-size="24.00">3&#45;7K LOC</text>
</g>
<!-- Event -->
<g id="node3" class="node"><title>Event</title>
<ellipse fill="#fdae61" stroke="black" cx="258.687" cy="-163" rx="84.7059" ry="42.3529"/>
<text text-anchor="middle" x="258.687" y="-169.8" font-family="Times,serif" font-size="24.00">Event/</text>
<text text-anchor="middle" x="258.687" y="-143.8" font-family="Times,serif" font-size="24.00">1&#45;2K LOC</text>
</g>
<!-- Event&#45;&gt;Core -->
<g id="edge3" class="edge"><title>Event&#45;&gt;Core</title>
<path fill="none" stroke="black" d="M325.847,-136.783C340.296,-131.4 355.491,-125.772 369.687,-120.574 415.237,-103.895 466.313,-85.5365 507.357,-70.8675"/>
<polygon fill="black" stroke="black" points="508.787,-74.0734 517.027,-67.4135 506.432,-67.4813 508.787,-74.0734"/>
</g>
<!-- Examples -->
<g id="node4" class="node"><title>Examples</title>
<ellipse fill="#fdae61" stroke="black" cx="281.687" cy="-645" rx="84.7059" ry="42.3529"/>
<text text-anchor="middle" x="281.687" y="-651.8" font-family="Times,serif" font-size="24.00">Examples/</text>
<text text-anchor="middle" x="281.687" y="-625.8" font-family="Times,serif" font-size="24.00">1&#45;2K LOC</text>
</g>
<!-- ClientLib -->
<g id="node10" class="node"><title>ClientLib</title>
<polygon fill="#abdda4" stroke="black" points="352.187,-555 211.187,-555 211.187,-519 352.187,-519 352.187,-555"/>
<text text-anchor="middle" x="281.687" y="-530.8" font-family="Times,serif" font-size="24.00">liblogcabin.a</text>
</g>
<!-- Examples&#45;&gt;ClientLib -->
<g id="edge4" class="edge"><title>Examples&#45;&gt;ClientLib</title>
<path fill="none" stroke="black" d="M281.687,-602.41C281.687,-589.927 281.687,-576.558 281.687,-565.253"/>
<polygon fill="black" stroke="black" points="285.188,-565.143 281.687,-555.143 278.188,-565.143 285.188,-565.143"/>
</g>
<!-- Protocol -->
<g id="node5" class="node"><title>Protocol</title>
<ellipse fill="#fdae61" stroke="black" cx="463.687" cy="-163" rx="84.7059" ry="42.3529"/>
<text text-anchor="middle" x="463.687" y="-169.8" font-family="Times,serif" font-size="24.00">Protocol/</text>
<text text-anchor="middle" x="463.687" y="-143.8" font-family="Times,serif" font-size="24.00">0&#45;1K LOC</text>
</g>
<!-- RPC&#45;&gt;Event -->
<g id="edge5" class="edge"><title>RPC&#45;&gt;Event</title>
<path fill="none" stroke="black" d="M258.687,-241.717C258.687,-233.156 258.687,-224.306 258.687,-215.781"/>
<polygon fill="black" stroke="black" points="262.188,-215.584 258.687,-205.584 255.188,-215.584 262.188,-215.584"/>
</g>
<!-- RPC&#45;&gt;Protocol -->
<g id="edge6" class="edge"><title>RPC&#45;&gt;Protocol</title>
<path fill="none" stroke="black" d="M319.639,-256.05C346.264,-239.037 377.391,-219.146 403.884,-202.216"/>
<polygon fill="black" stroke="black" points="405.769,-205.165 412.311,-196.831 402,-199.266 405.769,-205.165"/>
</g>
<!-- Server -->
<g id="node7" class="node"><title>Server</title>
<ellipse fill="#fdae61" stroke="black" cx="470.687" cy="-428" rx="93.1765" ry="42.3529"/>
<text text-anchor="middle" x="470.687" y="-434.8" font-family="Times,serif" font-size="24.00">Server/</text>
<text text-anchor="middle" x="470.687" y="-408.8" font-family="Times,serif" font-size="24.00">5&#45;13K LOC</text>
</g>
<!-- Server&#45;&gt;RPC -->
<g id="edge7" class="edge"><title>Server&#45;&gt;RPC</title>
<path fill="none" stroke="black" d="M416.092,-393.522C389.742,-377.364 357.8,-357.777 329.595,-340.481"/>
<polygon fill="black" stroke="black" points="331.326,-337.437 320.971,-335.193 327.667,-343.404 331.326,-337.437"/>
</g>
<!-- Storage -->
<g id="node8" class="node"><title>Storage</title>
<ellipse fill="#fdae61" stroke="black" cx="672.688" cy="-296" rx="84.7059" ry="42.3529"/>
<text text-anchor="middle" x="672.688" y="-302.8" font-family="Times,serif" font-size="24.00">Storage/</text>
<text text-anchor="middle" x="672.688" y="-276.8" font-family="Times,serif" font-size="24.00">3&#45;7K LOC</text>
</g>
<!-- Server&#45;&gt;Storage -->
<g id="edge8" class="edge"><title>Server&#45;&gt;Storage</title>
<path fill="none" stroke="black" d="M523.497,-393.014C550.934,-375.356 584.57,-353.709 612.954,-335.443"/>
<polygon fill="black" stroke="black" points="615.066,-338.245 621.581,-329.89 611.278,-332.359 615.066,-338.245"/>
</g>
<!-- Server&#45;&gt;Tree -->
<g id="edge9" class="edge"><title>Server&#45;&gt;Tree</title>
<path fill="none" stroke="black" d="M470.049,-385.51C469.869,-373.783 469.67,-360.877 469.482,-348.632"/>
<polygon fill="black" stroke="black" points="472.98,-348.487 469.327,-338.542 465.981,-348.595 472.98,-348.487"/>
</g>
<!-- Storage&#45;&gt;Core -->
<g id="edge10" class="edge"><title>Storage&#45;&gt;Core</title>
<path fill="none" stroke="black" d="M658.516,-253.951C643.412,-210.202 619.478,-140.877 603.204,-93.7367"/>
<polygon fill="black" stroke="black" points="606.425,-92.3418 599.853,-84.0314 599.808,-94.6262 606.425,-92.3418"/>
</g>
<!-- Tree&#45;&gt;Core -->
<g id="edge11" class="edge"><title>Tree&#45;&gt;Core</title>
<path fill="none" stroke="black" d="M514.034,-259.621C530.262,-244.625 547.131,-225.881 557.688,-205.426 575.332,-171.239 582.166,-128.159 584.678,-94.9584"/>
<polygon fill="black" stroke="black" points="588.198,-94.7544 585.35,-84.5497 581.213,-94.3034 588.198,-94.7544"/>
</g>
<!-- Tree&#45;&gt;Protocol -->
<g id="edge12" class="edge"><title>Tree&#45;&gt;Protocol</title>
<path fill="none" stroke="black" d="M467.105,-253.551C466.649,-241.604 466.146,-228.418 465.669,-215.922"/>
<polygon fill="black" stroke="black" points="469.155,-215.488 465.276,-205.629 462.16,-215.755 469.155,-215.488"/>
</g>
<!-- ClientLib&#45;&gt;Client -->
<g id="edge13" class="edge"><title>ClientLib&#45;&gt;Client</title>
<path fill="none" stroke="black" d="M277.831,-518.809C275.464,-508.255 272.297,-494.133 269.176,-480.218"/>
<polygon fill="black" stroke="black" points="272.527,-479.167 266.923,-470.175 265.697,-480.699 272.527,-479.167"/>
</g>
<!-- Main -->
<g id="node11" class="node"><title>Main</title>
<polygon fill="#abdda4" stroke="black" points="535.188,-567 406.187,-567 406.187,-507 535.188,-507 535.188,-567"/>
<text text-anchor="middle" x="470.687" y="-543.8" font-family="Times,serif" font-size="24.00">logcabind</text>
<text text-anchor="middle" x="470.687" y="-517.8" font-family="Times,serif" font-size="24.00">(LogCabin)</text>
</g>
<!-- Main&#45;&gt;Server -->
<g id="edge14" class="edge"><title>Main&#45;&gt;Server</title>
<path fill="none" stroke="black" d="M470.687,-506.762C470.687,-498.67 470.687,-489.638 470.687,-480.674"/>
<polygon fill="black" stroke="black" points="474.188,-480.637 470.687,-470.637 467.188,-480.637 474.188,-480.637"/>
</g>
<!-- Reconfigure -->
<g id="node12" class="node"><title>Reconfigure</title>
<polygon fill="#abdda4" stroke="black" points="290.687,-783 72.6875,-783 72.6875,-723 290.687,-723 290.687,-783"/>
<text text-anchor="middle" x="181.687" y="-759.8" font-family="Times,serif" font-size="24.00">logcabin&#45;reconfigure</text>
<text text-anchor="middle" x="181.687" y="-733.8" font-family="Times,serif" font-size="24.00">(Reconfigure)</text>
</g>
<!-- Reconfigure&#45;&gt;Examples -->
<g id="edge15" class="edge"><title>Reconfigure&#45;&gt;Examples</title>
<path fill="none" stroke="black" d="M209.278,-722.754C218.484,-712.996 228.969,-701.882 239.046,-691.2"/>
<polygon fill="black" stroke="black" points="241.62,-693.572 245.936,-683.897 236.528,-688.769 241.62,-693.572"/>
</g>
<!-- ServerControl -->
<g id="node13" class="node"><title>ServerControl</title>
<polygon fill="#abdda4" stroke="black" points="177.687,-567 7.6875,-567 7.6875,-507 177.687,-507 177.687,-567"/>
<text text-anchor="middle" x="92.6875" y="-543.8" font-family="Times,serif" font-size="24.00">logcabinctl</text>
<text text-anchor="middle" x="92.6875" y="-517.8" font-family="Times,serif" font-size="24.00">(ServerControl)</text>
</g>
<!-- ServerControl&#45;&gt;Client -->
<g id="edge16" class="edge"><title>ServerControl&#45;&gt;Client</title>
<path fill="none" stroke="black" d="M137.774,-506.762C156.476,-494.634 178.432,-480.396 198.41,-467.441"/>
<polygon fill="black" stroke="black" points="200.35,-470.354 206.836,-461.977 196.541,-464.481 200.35,-470.354"/>
</g>
<!-- StorageTool -->
<g id="node14" class="node"><title>StorageTool</title>
<polygon fill="#abdda4" stroke="black" points="775.688,-458 599.688,-458 599.688,-398 775.688,-398 775.688,-458"/>
<text text-anchor="middle" x="687.688" y="-434.8" font-family="Times,serif" font-size="24.00">logcabin&#45;storage</text>
<text text-anchor="middle" x="687.688" y="-408.8" font-family="Times,serif" font-size="24.00">(Storage/Tool)</text>
</g>
<!-- StorageTool&#45;&gt;Storage -->
<g id="edge17" class="edge"><title>StorageTool&#45;&gt;Storage</title>
<path fill="none" stroke="black" d="M684.321,-397.825C682.647,-383.319 680.574,-365.35 678.643,-348.618"/>
<polygon fill="black" stroke="black" points="682.088,-347.935 677.465,-338.402 675.134,-348.738 682.088,-347.935"/>
</g>
<!-- TreeOps -->
<g id="node15" class="node"><title>TreeOps</title>
<polygon fill="#abdda4" stroke="black" points="440.687,-783 324.687,-783 324.687,-723 440.687,-723 440.687,-783"/>
<text text-anchor="middle" x="382.687" y="-759.8" font-family="Times,serif" font-size="24.00">logcabin</text>
<text text-anchor="middle" x="382.687" y="-733.8" font-family="Times,serif" font-size="24.00">(TreeOps)</text>
</g>
<!-- TreeOps&#45;&gt;Examples -->
<g id="edge18" class="edge"><title>TreeOps&#45;&gt;Examples</title>
<path fill="none" stroke="black" d="M354.821,-722.754C345.428,-712.896 334.717,-701.655 324.444,-690.874"/>
<polygon fill="black" stroke="black" points="326.856,-688.331 317.424,-683.506 321.788,-693.16 326.856,-688.331"/>
</g>
</g>
</svg>
